<svg xmlns="http://www.w3.org/2000/svg" viewBox="0 0 432.09 492.09"><defs><style>.cls-1{fill:#fefefe;}.cls-2{fill:#fdbc11;}.cls-3{fill:#102129;}.cls-4{fill:#9b9bac;}.cls-5{fill:#414951;}.cls-6{fill:#6a6a6a;}</style></defs><title>Element 2</title><g id="Ebene_2" data-name="Ebene 2"><g id="Ebene_1-2" data-name="Ebene 1"><path class="cls-1" d="M.05,245.8Q.05,124,0,2.2C0,.41.41,0,2.21,0Q216.05.08,429.88,0c1.8,0,2.21.4,2.21,2.2q-.07,243.84,0,487.68c0,1.8-.4,2.21-2.2,2.21q-213.84-.07-427.68,0c-1.8,0-2.21-.4-2.21-2.21Q.08,367.84.05,245.8Zm368.89,39.3c.69-3.47,2.61-6.45,4-9.64.69-1.58.36-2.31-1.21-2.86-2.25-.79-4.39-2-6.67-2.58-2.55-.7-3.41-1.93-2.85-4.59a15,15,0,0,0-1.62-10.18c-2.29-4.35-6-6.69-11-7.27-2.44-.28-4.55.42-6.8.8-.7-4.82-.33-9.68-.37-14.52-.08-9.54-.37-19.09,0-28.64.32-1.68-.24-3.33-.19-5,.06-2.05-.81-2.76-2.89-2.75-7.76.07-15.52,0-23.27-.06q-40.08-.09-80.15-.17c-7.43,0-14.87-.16-22.3-.24a19.41,19.41,0,0,1,1.35-2q10.26-11.73,20.55-23.43a6.32,6.32,0,0,1,3.37-2.1c4.26-1,8.49-2.24,12.72-3.39,1-.27,2-.49,2.31-1.77,1.83-8.08,2-16.12-2-23.56-1.44-2.71-3.79-5.36-7.46-5.67-.92-.08-1.07-.86-1.35-1.49-2.48-5.63-4.92-11.28-7.42-16.9q-5-11.16-10-22.3c.62-1.45,1-.61,1.55.11,3.63,4.89,8.55,8,14.08,10.4,8.26,3.52,17.08,4.35,25.83,4.55,14.11.31,28.24-.23,42.33-1.32,9.55-.73,17.61-4.42,23.45-11.87,8.76-11.16,10.53-24.41,9.87-38.1-.27-5.52-1.77-10.9-3.44-16.14-1.07-3.38-2.73-6.58-5.85-8.81-6.24-4.45-13.18-7.56-20.12-10.57-18.59-8-38-13.7-57.15-20.26-4.46-1.54-7.85-1.66-11.3,1.82-2,2-2.3,1.74-2.59-1-.16-1.48-.32-2.43-2.28-1.93C227,4.93,213.85,7.6,200.86,11c-16.38,4.32-32.69,8.88-48.52,15C137.46,31.75,123.44,38.8,112,50.31A45.16,45.16,0,0,0,100.36,69c-2.22,1.09-4.49,2.08-6.64,3.29s-4.29,2.34-5.13,4.5C85.77,84,84.22,91.44,87.08,99.13c.52,1.39,1.27,2.76,1.14,4.34-2.09,3-4.31,5.84-5.25,9.57a58.47,58.47,0,0,0-1.26,18.31c.33,5,2.67,8.68,6.45,11.78,6,5,13.3,6.8,20.72,8.14,5.1.93,10.26,1.71,15.48.84,3.86-.64,7.72-1.29,11.56-2,10.05-1.89,20.06-4,30.42-2.73,9.45,1.19,18.77,2.85,27.63,6.57a2.08,2.08,0,0,1,1.55,2.17c.31,3.71-.18,7.59,1.53,11.07.87,1.77.4,2.84-.93,4.13-8.32,8.08-16.56,16.23-24.81,24.38-.6.6-1.47,1-1.51,2a23,23,0,0,1-2.79.65q-32.94,4.05-65.89,8.05c-11.18,1.36-22.36,2.72-33.55,4-2,.23-2.79.95-2.65,3,.23,3.43.14,6.87.32,10.3.1,1.8-.36,2.19-2.14,1.65-5.43-1.63-10.92-3.07-16.37-4.65-1.15-.33-2-.41-2.45,1-1.44,4.48-2.9,9-4.34,13.43Q38,241,36.05,246.91c-1.49,4.21-2.86,8.46-4.49,12.61-.86,2.17-.38,3,1.88,3.7,10.12,2.93,20.17,6.09,30.29,9,1.79.52,2.33,1.36,2.35,3.15.09,9.66.31,19.33.48,29a127.25,127.25,0,0,1-12.72,2.25,10.77,10.77,0,0,0-6.2,3.32,82.91,82.91,0,0,0-13.46,20c-9,17.93-17.74,36-26,54.25A59,59,0,0,0,3.5,398.35c-1.62,9.19-3.8,18.3-2.07,27.77,1.07,5.85,3.18,11,7.81,14.93,6.32,5.41,13.52,9.48,20.87,13.1,19.28,9.51,38.73,18.67,58.25,27.67a135.32,135.32,0,0,0,22.41,7.69c8.82,2.31,17.66,2.81,26.49.08q32.18-9.93,64.35-19.9a19.07,19.07,0,0,0,9.32-6.38c3.08-3.76,4-8.34,5.32-12.72a34.29,34.29,0,0,0,1.19-15.19,66,66,0,0,0-6.95-20.57c-2.67-5.18-5.46-10.3-7.22-15.89,7.7-.73,15.38-1.72,23.13-2q53.84,20.54,107.7,41A25,25,0,0,0,346.85,439c20.33-3.13,40.18-8.47,60.21-13,7.29-1.64,14.46-4.29,19.1-11A33.12,33.12,0,0,0,431,404.75c1.12-4.22.36-8.55.17-12.84-.41-9.28-2.78-17.84-8.63-25.31-7.2-9.21-13.27-19.23-21.45-27.77-9.28-9.67-16.9-20.86-26.61-30.18-.33-1.2.51-1.94,1.11-2.75q4.14-5.55,8.31-11.06c.73-1,1.42-2.08-.1-2.75C378.78,289.89,374.14,286.91,368.94,285.1Z"/><path class="cls-2" d="M39.94,235.14c1.44-4.47,2.9-8.95,4.34-13.43.43-1.36,1.3-1.28,2.45-1,5.45,1.58,10.94,3,16.37,4.65,1.78.54,2.24.15,2.14-1.65-.18-3.43-.09-6.87-.32-10.3-.14-2.08.69-2.8,2.65-3,11.19-1.28,22.37-2.64,33.55-4q33-4,65.89-8.05a23,23,0,0,0,2.79-.65l1.66.09.21,0,.19-.1,1-.1a3.37,3.37,0,0,0,2.39-.31c.08,2.88.17,5.77.25,8.65-.39,4,.16,8,.25,11.95.25,12.53.57,25.06.82,37.59,0,1.35.24,2.27,1.82,2.51s1.76,1.26,1.26,2.66-.64,2.82-1.14,4.15c-.69,1.89-.48,2.67,1.84,2.69,10.06,0,20.11.29,30.17.46.56,1.28,1.72,1,2.71.94q21.42-.45,42.85-1c3.49-.09,7,.34,10.46-.45a11.66,11.66,0,0,1,2.48-.58c10.18.07,20.36.07,30.54.08,0,1.44,0,2.88,0,4.32q-.26,33.23-.55,66.46c0,1.81.5,2.73,2.31,3.24,3.3.93,6.57,2,9.78,3.24,2.12.81,3.11.35,3.9-1.85,3.7-10.38,7.6-20.7,11.38-31.07,3.31-9.08,6.56-18.18,9.84-27.28,2.73.52,5.76.45,7,3.74v0c-1,.43-.7,1.22-.5,2q-9.58,27.54-19.2,55.08c-.6,1.71-.2,2.42,1.46,3,3.32,1.13,6.57,2.46,9.86,3.67,4.79,1.75,4.8,1.74,8-2.06a8.13,8.13,0,0,1,.27,3.29c.18,5.64-.15,11.28.35,16.91a2.84,2.84,0,0,0,0,1.95c0,3.65.07,7.29.08,10.94,0,3.47,0,3.44-3.53,3.77-5.61.52-11.22,1.07-16.82,1.61l-1.93.12c-.63,0-1.27,0-1.91.1q-29.71,2.72-59.44,5.46c-8.27.76-16.53,1.59-24.8,2.39a8.27,8.27,0,0,0-3.66.43c-1.69,0-3.41-.27-5,.55-7.74.28-15.42,1.27-23.12,2-4.42-6.17-8.8-12.37-13.27-18.5-13.76-18.87-25.53-39.23-42.14-56-3-3-6.09-6.06-8.24-9.64a31.29,31.29,0,0,0-13.49-12.62c-2.15-1-4.12-2.32-6.59-2.75-8.73-1.5-17.35-.49-26,.8-9,1.34-18,2.76-27,4.15-.17-9.66-.39-19.33-.48-29,0-1.79-.56-2.63-2.35-3.15-10.12-3-20.17-6.12-30.29-9-2.26-.66-2.74-1.53-1.88-3.7,1.63-4.15,3-8.4,4.48-12.61-.24,1.4.3,2.11,1.71,2.61,7.27,2.62,14.52,5.3,21.73,8.1,1.94.76,2.68.22,3.29-1.6q1.83-5.44,4-10.76c.69-1.69.33-2.37-1.43-2.89-8-2.33-15.87-4.79-23.79-7.23A2.18,2.18,0,0,0,39.94,235.14Zm159.23,43.31c-7.67-2.34-15.48-4.12-23.28-5.95a9.55,9.55,0,0,1,1-4.39c.77-2,.06-2.71-1.83-3.14-4.74-1.07-9.47-2.21-14.17-3.48-6.31-1.7-12.53-3.71-18.73-5.79-5.14-1.72-10.48-2.81-15.69-4.27-14.78-4.12-29.49-8.5-44.21-12.8-1.4-.4-2.51-.77-3,1.29-2.13,8.19-4.42,16.34-6.64,24.5-.93,3.44.19,5.46,3.58,6.46q44.59,13.17,89.2,26.31c4,1.17,4,1.16,5.24-2.74l15.3,4.12c1.05,1.34.34,1.94-.93,2.41-3.88,1.43-7.72,2.95-11.62,4.33-1.74.62-2.21,1.38-1.28,3.16s2.27,3.66,2.45,5.89c-5.79,2.05-11.59,4.08-17.37,6.17-2.54.92-2.61,1.35-.78,3.46q24,27.72,48,55.45a2.37,2.37,0,0,0,3.28.77c4.55-2.15,9.09-4.31,13.72-6.29,2.12-.9,2.36-1.95,1.51-4-6.92-16.84-13.73-33.72-20.57-50.59a41.83,41.83,0,0,1,8.43-3.38,2.44,2.44,0,0,0,.09.47q10.44,26.91,20.88,53.81c.63,1.64,1.52,1.51,2.79,1,3.51-1.53,7.07-3,10.56-4.54,2.16-1,5.13-1.25,6.26-3.18s.08-4.82-.11-7.28q-2.5-32.94-5-65.89c-.2-2.63-.55-2.85-3.13-2-4.3,1.48-8.51,3.22-12.94,4.33-.48-1.68-1-3.35-1.41-5.07s-1.18-1.95-2.74-1.4c-3.39,1.19-6.85,2.16-10.23,3.36-1.48.53-2.19.2-3.05-1.13-1.68-2.57-2.83-5.45-5.42-7.49S201.87,279.23,199.17,278.45Z"/><path class="cls-3" d="M66.56,304.41c9-1.39,18-2.81,27-4.15,8.62-1.29,17.24-2.3,26-.8,2.47.43,4.44,1.72,6.59,2.75a31.29,31.29,0,0,1,13.49,12.62c2.15,3.58,5.27,6.64,8.24,9.64,16.61,16.74,28.38,37.1,42.14,56,4.47,6.13,8.85,12.33,13.27,18.5,1.76,5.59,4.55,10.71,7.22,15.89a66,66,0,0,1,6.95,20.57,34.29,34.29,0,0,1-1.19,15.19c-1.36,4.38-2.24,9-5.32,12.72a19.07,19.07,0,0,1-9.32,6.38q-32.16,10-64.35,19.9c-8.83,2.73-17.67,2.23-26.49-.08a135.32,135.32,0,0,1-22.41-7.69c-19.52-9-39-18.16-58.25-27.67-7.35-3.62-14.55-7.69-20.87-13.1-4.63-4-6.74-9.08-7.81-14.93-1.73-9.47.45-18.58,2.07-27.77a59,59,0,0,1,4.65-14.07c8.29-18.27,17-36.32,26-54.25a82.91,82.91,0,0,1,13.46-20,10.77,10.77,0,0,1,6.2-3.32A127.25,127.25,0,0,0,66.56,304.41Zm65.18,3.5c-4.53-2.58-8.12-5.66-13-6.59-4.06-.77-8-.47-12.1-.45a111.34,111.34,0,0,0-16.13,1.79q-15.69,2.41-31.32,5.14c-2.47.43-5,.44-7.4,1.58-3,1.44-4.83,4-6.52,6.54a153.1,153.1,0,0,0-12.7,21.66c-6.14,13.45-12.82,26.64-19.13,40-3.13,6.63-6.62,13.14-7.87,20.49-1.37,8.05-3.34,16-2.64,24.32.72,8.52,3.88,15.66,11.36,20.18,6.69,4,13.21,8.34,20.35,11.65,15.82,7.3,31.46,15,47.17,22.5A152.93,152.93,0,0,0,113,488c4.49,1,9,2,13.71,1.55a81.9,81.9,0,0,0,15.8-3.57c19.71-6.22,39.48-12.22,59.2-18.38a14.55,14.55,0,0,0,7.19-4.92c3.88-5,5.08-10.89,6.32-16.83.29-1.38-.22-1.28-1.23-1-3.32.83-6.66,1.57-10,2.39-19,4.68-38,9.46-57.12,14-2.78.65-3.73,2-4.31,4.44-1.32,5.51-3,10.89-6.46,15.56-2.57,3.43-9.12,6.13-13.35,5.18-8.13-1.84-15.78-5.11-23.43-8.29C89.54,474,80,469.31,70.15,465.31c-15.69-6.4-31.23-13.11-46.27-20.9a42.84,42.84,0,0,1-10.4-8,35.56,35.56,0,0,1-7.62-12.65,18.75,18.75,0,0,1-1.43-8.89C5.14,409.44,6.05,404,7,398.62c.82-4.77,3.26-9,5.08-13.38,5.78-14,11.73-28,18.75-41.43C35.93,334,41.25,324.2,48.1,315.42c3.39-4.35,7.17-6.93,13.11-3.08a32.41,32.41,0,0,1,5.59,4.84,3,3,0,0,0,3,.89c8.39-1.45,16.81-2.74,25.21-4.11C107,312,119.09,310,131.74,307.91ZM204,409c-6.71,1.24-13.13,2.42-19.54,3.62l-24.63,4.61c-8.67,1.63-17.34,3.31-26,4.88-2,.35-2.11.95-1.32,2.75,3.51,7.94,7.5,15.72,9.26,24.33.28,1.37,1,1.73,2.42,1.39,8.14-1.91,16.3-3.72,24.45-5.54q22-4.92,44.06-9.81c1.67-.37,2.57-.66,2.12-2.92-1.6-7.95-5.09-15.07-8.93-22.08A2,2,0,0,0,204,409Zm-76.2,4.41c.58-.05.9-.05,1.21-.11,7.82-1.47,15.65-2.87,23.45-4.44,15.44-3.11,30.88-6.2,46.38-9,1.46-.26,2-.67,1-2.13-5.05-7.07-10.08-14.16-15-21.33a3.11,3.11,0,0,0-3.43-1.44c-9,1.28-17.91,2.71-26.89,3.93-13.71,1.85-27.36,4.07-41,6.13-1.23.18-1.69.5-1,1.85q6.58,12.38,13,24.83C126,412.78,126.62,413.64,127.76,413.38ZM106.5,375.93c5.17-.89,10.34-1.81,15.52-2.69q16.35-2.78,32.7-5.52l17.66-3c1.71-.29,2-.91.93-2.44-3.17-4.5-6.49-8.94-9.2-13.71-2.27-4-4.7-5.61-9.57-4.56-8.07,1.72-16.34,2.55-24.52,3.78-6.68,1-13.36,2.08-20.05,3.06-6,.87-12,1.64-18,2.49-1.1.16-2.11.41-1,1.95,4.61,6.51,9.15,13.07,13.69,19.64A2,2,0,0,0,106.5,375.93ZM136,315.84l-21.47,3.07-25.71,3.71c-4.48.65-9,1.28-13.44,2-1,.16-2.45.27-1.32,2q5.67,8.86,11.25,17.79a1.75,1.75,0,0,0,2.12,1c4.69-.83,9.42-1.47,14.12-2.26q25.38-4.26,50.77-8.53c1.21-.2,1.41-.5.59-1.44q-7.11-8.06-14.21-16.15A2.81,2.81,0,0,0,136,315.84ZM18.71,405.7a58.67,58.67,0,0,0,.5,8.57c1.25,7.33,3.26,14.31,7.8,20.37,6,8.06,14.71,9.83,21.86,4.33a23.54,23.54,0,0,0,6.9-8.49c7-14.47,7.47-29.32,2.37-44.43a30.34,30.34,0,0,0-8.8-13.49,13.87,13.87,0,0,0-18-.41,24.86,24.86,0,0,0-5.7,6.41C20.44,386.87,18.53,396,18.71,405.7ZM88.27,445a30.31,30.31,0,0,0,5.32,17.63c7.24,10.62,20.48,10.91,27.88.6,7.66-10.65,7.81-26.44.37-37.18-7.26-10.5-20-10.78-27.71-.55C90,431.08,88.13,437.43,88.27,445ZM42.32,345.81a28.22,28.22,0,0,0,0,4.78,39.71,39.71,0,0,0,1.84,7.15c1,2.57,1.95,5.14,4.2,7.1,4.59,4,14.17,2,17.85-.37a6.73,6.73,0,0,0,3.26-3.63c2.2-7.21,1.6-14.49.47-21.71a31.59,31.59,0,0,0-3.22-9.86c-3.42-6.54-11.38-5.42-15.5-2.44C44.84,331.48,42,337.92,42.32,345.81ZM72,391.22c0,.11,0,.43,0,.74.13,6,3.36,10.43,8.58,11.79a14.84,14.84,0,0,0,9.38-.5c2.23-.88,2.51-3.35,3.79-5a8.43,8.43,0,0,0,.55-.78,13.72,13.72,0,0,0,2.08-7.73A62,62,0,0,0,95,378.15a15.11,15.11,0,0,0-6.18-9.3c-2.3-1.54-6.85-1.37-8.42.58C75.27,375.71,71.94,382.71,72,391.22Z"/><path class="cls-2" d="M100.36,69A45.16,45.16,0,0,1,112,50.31C123.44,38.8,137.46,31.75,152.34,26c15.83-6.11,32.14-10.67,48.52-15C213.85,7.6,227,4.93,240,1.66c2-.5,2.12.45,2.28,1.93.29,2.79.61,3,2.59,1,3.45-3.48,6.84-3.36,11.3-1.82,19.12,6.56,38.56,12.23,57.15,20.26,6.94,3,13.88,6.12,20.12,10.57,3.12,2.23,4.78,5.43,5.85,8.81,1.67,5.24,3.17,10.62,3.44,16.14.66,13.69-1.11,26.94-9.87,38.1-5.84,7.45-13.9,11.14-23.45,11.87-14.09,1.09-28.22,1.63-42.33,1.32-8.75-.2-17.57-1-25.83-4.55-5.53-2.36-10.45-5.51-14.08-10.4-.53-.72-.93-1.56-1.55-.11C224,96.21,222.71,98,221,99.3a89.62,89.62,0,0,1-22.25,12.8l-9.62,3.3a3.5,3.5,0,0,0-2,.62l-3.45,1c-5,1.38-9.89,3.21-15,4.07a86.86,86.86,0,0,1-37-1.2c-4.59-1.43-9.23-3-12.94-6C107.5,104.67,100.51,93,99.29,78.17,99,74.94,100.32,72.08,100.36,69Zm88.83,37.46c9.68.16,13.69-1.74,19.27-5.3,6.9-4.4,12.13-10.62,17.47-16.65a36,36,0,0,0,5.51-7.81,91.81,91.81,0,0,0,8.3-24.9,68,68,0,0,0,1.51-12.1c0-5-.53-9.9-.84-14.84-.34-5.35-1.28-10.61-2.09-15.9C238,6.78,237,6.83,235.4,7.51c-3.48,1.43-7,2.74-10.5,4.1-19.15,7.41-38.43,14.54-55.71,26-6.26,4.15-11.83,8.9-15.47,15.65a27.42,27.42,0,0,0-3,17.19,43.05,43.05,0,0,0,14.39,26.63C171.93,103.09,179.63,106.8,189.19,106.46ZM337.08,62.1c.26-3.41-.33-7.94-1.06-12.43-1.12-7-3.64-13-10.41-16.77-5.09-2.81-10.47-4.73-15.8-6.87C292.23,19,274.09,13.46,256.18,7.31c-1.31-.45-2.25-.35-2.49,1.15-.85,5.43-2.67,10.69-2.53,16.29.2,8.39.31,16.79,1.48,25.11,1.31,9.38,4.31,18.26,9.89,26,9.65,13.31,23.08,21.09,38.74,25.31,4,1.07,8,1.64,12,.11a67.65,67.65,0,0,0,9.7-4.1c3.79-2.2,7.71-4.78,9.22-9.09C335,80.06,337.27,71.89,337.08,62.1Z"/><path class="cls-3" d="M235.06,396c8.27-.8,16.53-1.63,24.8-2.39q29.73-2.76,59.44-5.46c.64-.06,1.28-.07,1.91-.1a39.13,39.13,0,0,0,2.31,21.08c2,4.92,4.85,9.24,9.94,11.42,6.75,2.89,14.34.06,18.3-7,6.73-12.08,6.76-24.36.11-36.49a14.76,14.76,0,0,0-8.42-7.36c-.5-5.63-.17-11.27-.35-16.91a8.13,8.13,0,0,0-.27-3.29c1.1-1.7,2-3.56,3.71-4.79,4.41.4,8.7-.71,13-1.06,7-.56,14-1.47,21.06-2.26q8-.9,16.08-1.86c.51-.06,1.24.23,1.47-.46s-.47-.94-.82-1.35q-8.61-10.22-17.21-20.43a2.39,2.39,0,0,0-2.37-1c-3.49.26-6.95.93-10.47.66,1.91-2.6,3.83-5.2,5.71-7.82.41-.59.89-.47,1.43-.38,9.71,9.32,17.33,20.51,26.61,30.18,8.18,8.54,14.25,18.56,21.45,27.77,5.85,7.47,8.22,16,8.63,25.31.19,4.29.95,8.62-.17,12.84a33.12,33.12,0,0,1-4.83,10.32c-4.64,6.67-11.81,9.32-19.1,11-20,4.51-39.88,9.85-60.21,13A25,25,0,0,1,334.1,438q-53.88-20.43-107.7-41c1.59-.82,3.31-.52,5-.55.34.76,1.09.86,1.75,1.11q17.34,6.58,34.67,13.18Q300,423,332.17,435.32A27.9,27.9,0,0,0,346,437.19c11.84-1.63,23.45-4.44,35.05-7.27,10.43-2.54,21.08-4.12,31.29-7.64,7-2.42,12.3-6.55,15-13.59.22-.57.88-1.16.51-1.74s-1.33-.39-2-.29c-9.91,1.46-19.81,3-29.71,4.44-9.44,1.4-18.87,2.81-28.32,4.1-1.81.25-3,.83-3.52,2.63A25.12,25.12,0,0,1,360,426c-2.78,3.48-5.84,6.42-10.3,7.72a21,21,0,0,1-12-.37c-12.07-3.62-24.14-7.32-36-11.63-20.6-7.51-41-15.48-61.52-23.33C238.43,397.7,236.37,397.57,235.06,396Zm128.66-18.78c3.54-.5,7.09-.95,10.62-1.52,11.29-1.82,22.58-3.69,33.87-5.52,3.45-.56,6.93-1,10.36-1.58.94-.17,2.83-.15,1.38-2.15q-7.65-10.55-15.2-21.16a1.71,1.71,0,0,0-2-.85c-3.76.66-7.54,1.16-11.3,1.8q-21,3.54-42.07,7.1c-1.06.17-1.47.29-.76,1.42,4.44,7.09,8.83,14.22,13.25,21.33C362.31,376.7,362.69,377.52,363.72,377.18Zm66,21.27a39.91,39.91,0,0,1-.49-4.48,53.6,53.6,0,0,0-2.86-16.88c-.64-2-1.5-2.34-3.45-2-7,1.33-14.09,2.44-21.14,3.65-11,1.89-22.08,3.83-33.14,5.63-1.77.29-2,.88-1.69,2.49.83,4.68,2.6,9.2,2.23,14.1-.16,2.08-.76,4.06-1,6.12-.15,1.45.33,2.08,1.88,1.82,5.32-.88,10.66-1.75,16-2.57q11.9-1.83,23.8-3.58c5.9-.87,11.8-1.71,17.7-2.61C428.72,400,430.08,399.8,429.71,398.45Z"/><path class="cls-4" d="M336.21,284.08c-3.28,9.1-6.53,18.2-9.84,27.28-3.78,10.37-7.68,20.69-11.38,31.07-.79,2.2-1.78,2.66-3.9,1.85-3.21-1.22-6.48-2.31-9.78-3.24-1.81-.51-2.32-1.43-2.31-3.24q.35-33.23.55-66.46c0-1.44,0-2.88,0-4.32.05-1.27.19-2.55.14-3.82-.08-2,.76-2.42,2.5-1.79,2.85,1,5.72,2,8.58,3s2.79,1,2.79-2.06q0-27.45,0-54.89c0-1-.51-2.3.84-3a40.16,40.16,0,0,1,4.49-.37c7.17.2,14.32-.51,21.49-.57,1.39,0,1.29,1.41,2,2.08-.34,9.54-.05,19.09,0,28.63,0,4.84-.33,9.7.37,14.52-3.67,1.93-7.29,3.92-9.2,7.9-.75,1.54-1.81,1.94-3.5,1.41-2.2-.69-4.49-1.08-6.73-1.63a2.14,2.14,0,0,0-2.92,1.59c-1.81,5.28-3.65,10.54-5.57,15.78-.55,1.5-.13,2.18,1.31,2.65,2.65.87,5.29,1.78,7.88,2.82C328.07,280.92,332.39,281.86,336.21,284.08Z"/><path class="cls-4" d="M198.75,112.1A89.62,89.62,0,0,0,221,99.3c1.71-1.34,3-3.09,4.64-4.47q5,11.15,10,22.3c2.5,5.62,4.94,11.27,7.42,16.9.28.63.43,1.41,1.35,1.49,3.67.31,6,3,7.46,5.67,4,7.44,3.83,15.48,2,23.56-.29,1.28-1.3,1.5-2.31,1.77-4.23,1.15-8.46,2.34-12.72,3.39a6.32,6.32,0,0,0-3.37,2.1q-10.26,11.73-20.55,23.43a19.41,19.41,0,0,0-1.35,2l-27.72-.09a3.59,3.59,0,0,1,.43-1.08c3.32-3.85,6.71-7.64,10-11.53,2.18-2.59,4.75-4.89,6.38-7.93,1.77,1.22,3.79.89,5.74.89,1.68,0,2.67-.85,3.4-2.47.82-1.82.82-3.71,1.12-5.57a22.69,22.69,0,0,0-12.8-24.39l2-.71c2.87-.6,5.73-1.27,8.62-1.76,1.43-.24,1.45-.74.92-1.88-2.49-5.35-5-10.7-7.32-16.11C202.5,120.54,200.23,116.5,198.75,112.1Z"/><path class="cls-5" d="M202.12,144.52l-2,.71a22.69,22.69,0,0,1,12.8,24.39c-.3,1.86-.3,3.75-1.12,5.57-.73,1.62-1.72,2.46-3.4,2.47-2,0-4,.33-5.74-.89-.63-1.58-2.68-1.8-3.29-3.35-.79-2-1.59-1.29-2.66-.22q-11.24,11.3-22.52,22.54c-.55.55-1.3,1-1.34,1.91l-1,.1c-.2-.3-.32-.22-.4.07l-1.66-.09c0-1,.91-1.45,1.51-2,8.25-8.15,16.49-16.3,24.81-24.38,1.33-1.29,1.8-2.36.93-4.13-1.71-3.48-1.22-7.36-1.53-11.07a2.08,2.08,0,0,0-1.55-2.17c-8.86-3.72-18.18-5.38-27.63-6.57-10.36-1.3-20.37.84-30.42,2.73-3.84.73-7.7,1.38-11.56,2-5.22.87-10.38.09-15.48-.84-7.42-1.34-14.67-3.18-20.72-8.14-3.78-3.1-6.12-6.81-6.45-11.78A58.47,58.47,0,0,1,83,113c.94-3.73,3.16-6.57,5.25-9.57a2.24,2.24,0,0,1,1.19,1.66,39.09,39.09,0,0,0,4.06,8.57c1.52,2.49,4.07,4,5.59,6.44-.3,2.71-.57,5.37.89,7.92,3.5,6.09,9.5,7.08,15.51,7,10.82-.13,21.38-2.64,32-4.38,9.21-1.51,18.35-3.35,27.76-1.15,6.1,1.43,12.38,2.14,18.19,4.7a1.61,1.61,0,0,0,1.61-.06c.72-.56,0-1.15-.23-1.64-2.52-5.53-5.09-11-7.64-16.53a3.5,3.5,0,0,1,2-.62c3.38,7.36,6.82,14.7,10.13,22.1C200.28,139.8,201.7,142,202.12,144.52Zm4.8,31.23c2.71,0,3.61-1.16,3.88-4.48a33.67,33.67,0,0,0-.51-10.83c-1.21-5-3.19-9.48-8-12.06-1.21-.64-1.84-.39-2.76.7-2,2.35-2.07,5.18-2.07,7.86a34,34,0,0,0,3.12,14.3C201.49,173.34,204.69,175.75,206.92,175.75ZM199.13,146l0-.21c-.06,0-.16,0-.16.05a.52.52,0,0,0,0,.21Z"/><path class="cls-4" d="M374.47,308.65c-.54-.09-1-.21-1.43.38-1.88,2.62-3.8,5.22-5.71,7.82-2.72,3.55-5.5,7-8.14,10.65-4.2,5.72-8.75,11.18-12.65,17.13-1.71,1.23-2.61,3.09-3.71,4.79-3.17,3.8-3.18,3.81-8,2.06-3.29-1.21-6.54-2.54-9.86-3.67-1.66-.56-2.06-1.27-1.46-3q9.66-27.51,19.2-55.08a2.18,2.18,0,0,0,.5-2v0c.9-1.46,2.09-1,3.31-.54,5.21,1.93,10.45,3.78,15.62,5.79,1.78.69,2.71.37,3.54-1.39,1-2.2,1.68-4.63,3.24-6.58,5.2,1.81,9.84,4.79,14.85,7,1.52.67.83,1.79.1,2.75q-4.15,5.52-8.31,11.06C375,306.71,374.14,307.45,374.47,308.65Z"/><path class="cls-4" d="M99.06,120.14c-1.52-2.43-4.07-4-5.59-6.44a39.09,39.09,0,0,1-4.06-8.57,2.24,2.24,0,0,0-1.19-1.66c.13-1.58-.62-3-1.14-4.34-2.86-7.69-1.31-15.1,1.51-22.34.84-2.16,3.12-3.37,5.13-4.5s4.42-2.2,6.64-3.29c0,3.08-1.34,5.94-1.07,9.17,1.22,14.86,8.21,26.5,19.56,35.65,3.71,3,8.35,4.61,12.94,6-1.57.57-3.17,1.07-4.7,1.74-5.79,2.54-11.77,2.73-18,2C105.44,123.15,102.48,121.08,99.06,120.14Z"/><path class="cls-5" d="M185.83,197.31l27.72.09c7.43.08,14.87.21,22.3.24q40.08.11,80.15.17c7.75,0,15.51.13,23.27.06,2.08,0,3,.7,2.89,2.75-.05,1.67.51,3.32.19,5-.68-.67-.58-2.08-2-2.08,0-4.55.31-3.8-3.82-3.83-37-.26-74,.39-111-.43-14.06-.32-28.14-.06-42.2-.07-6.22,0-6.22,0-6.22,6.25l-1.69.52c-.08-2.88-.17-5.77-.25-8.65Z"/><path class="cls-5" d="M368.94,285.1c-1.56,1.95-2.2,4.38-3.24,6.58-.83,1.76-1.76,2.08-3.54,1.39-5.17-2-10.41-3.86-15.62-5.79-1.22-.45-2.41-.92-3.31.54-1.26-3.29-4.29-3.22-7-3.74-3.82-2.22-8.14-3.16-12.19-4.78-2.59-1-5.23-1.95-7.88-2.82-1.44-.47-1.86-1.15-1.31-2.65,1.92-5.24,3.76-10.5,5.57-15.78a2.14,2.14,0,0,1,2.92-1.59c2.24.55,4.53.94,6.73,1.63,1.69.53,2.75.13,3.5-1.41,1.91-4,5.53-6,9.2-7.9,2.25-.38,4.36-1.08,6.8-.8,5,.58,8.74,2.92,11,7.27a15,15,0,0,1,1.62,10.18c-.56,2.66.3,3.89,2.85,4.59,2.28.63,4.42,1.79,6.67,2.58,1.57.55,1.9,1.28,1.21,2.86C371.55,278.65,369.63,281.63,368.94,285.1Zm-8.4-22.23c-.4-2.76-.5-6.34-3-9a12.7,12.7,0,0,0-16.26-2.07c-2.66,1.7-5.06,3.6-6.47,6.52-1,2-2.43,2.65-4.67,1.85-1.93-.68-4.05-.86-6-1.55-1.45-.51-1.95-.08-2.38,1.24-1.38,4.16-2.77,8.31-4.32,12.41-.7,1.85-.27,2.57,1.6,3.22,9,3.1,18,6.36,27,9.59,5.32,1.9,10.63,3.85,15.94,5.78.93.33,1.75.64,2.31-.67,2.07-4.83,4.21-9.63,6.35-14.43.44-1,.29-1.51-.85-1.91-2.7-.95-5.33-2.11-8-3.11a2.49,2.49,0,0,1-1.74-2.53C359.93,266.62,360.6,265.11,360.54,262.87Z"/><path class="cls-5" d="M39.94,235.14a2.18,2.18,0,0,1,1.61,0c7.92,2.44,15.84,4.9,23.79,7.23,1.76.52,2.12,1.2,1.43,2.89q-2.16,5.31-4,10.76c-.61,1.82-1.35,2.36-3.29,1.6-7.21-2.8-14.46-5.48-21.73-8.1-1.41-.5-2-1.21-1.71-2.61Zm2.5,2.26c-1.07-.19-1.27.43-1.43.92-.85,2.58-1.65,5.16-2.44,7.75-.39,1.27.19,1.83,1.4,2.27q9.77,3.56,19.48,7.28c1.41.54,1.67-.34,2-1.27.95-2.62,1.75-5.32,2.89-7.85.88-1.95.05-2.59-1.59-3.07-4-1.17-8.1-2.37-12.15-3.57C47.79,239,45,238.16,42.44,237.4Z"/><path class="cls-6" d="M177.15,205.47c0-6.25,0-6.25,6.22-6.25,14.06,0,28.14-.25,42.2.07,37,.82,74,.17,111,.43,4.13,0,3.81-.72,3.82,3.83-7.17.06-14.32.77-21.49.57a40.16,40.16,0,0,0-4.49.37c-1.52-.94-3.17-.31-4.77-.39l-22.27,0c-6.63,0-13.25,0-19.87-.13-1.74,0-2.15.85-2.14,2.39q0,29.22,0,58.42a3.11,3.11,0,0,0,1.13,2.71c-3.46.79-7,.36-10.46.45q-21.44.54-42.85,1c-1,0-2.15.34-2.71-.94,1.78,0,2.36-1,2.17-2.64-.79-6.91-.54-13.87-.81-20.79-.44-10.84-.76-21.69-1.07-32.54-.17-6-.05-6.1-6.07-6C195.51,206.19,186.34,205.51,177.15,205.47Zm86.9,5.78c1.39-4,.78-5-3.22-5H233.3c-6.06,0-12.13.05-18.19,0-1.85,0-2.69.61-2.51,2.5.08.86-.1,1.77.56,2.5l.06.52a5.79,5.79,0,0,0-.11,5.31v.8c-1.42,3.81-.76,4.88,3,4.88h10.8c11.67,0,23.34,0,35,0,2,0,2.84-.57,2.6-2.59a4.39,4.39,0,0,0-.46-2.31v-.83a6.18,6.18,0,0,0-.13-5.28Zm-48,29.92c-.34,6.16.77,12.28.48,18.44-.08,1.59.51,2.1,2.07,2q7.65-.33,15.31-.49c1.79,0,1.81-1.17,1.78-2.45-.17-8.7-.35-17.41-.47-26.11,0-1.54-.59-2.15-2.14-2.13-5,0-9.92.06-14.88,0-1.72,0-2.21.74-2.17,2.33C216.11,235.57,216.06,238.37,216.06,241.17Z"/><path class="cls-3" d="M170.59,294.45c-1.27,3.9-1.27,3.91-5.24,2.74q-44.59-13.14-89.2-26.31c-3.39-1-4.51-3-3.58-6.46,2.22-8.16,4.51-16.31,6.64-24.5.53-2.06,1.64-1.69,3-1.29,14.72,4.3,29.43,8.68,44.21,12.8,5.21,1.46,10.55,2.55,15.69,4.27,6.2,2.08,12.42,4.09,18.73,5.79,4.7,1.27,9.43,2.41,14.17,3.48,1.89.43,2.6,1.15,1.83,3.14a9.55,9.55,0,0,0-1,4.39A24.74,24.74,0,0,0,175,275C173.53,281.45,172.07,288,170.59,294.45Zm-39-39.78c3.37,10.07,6.71,19.56,9.68,29.16,1.05,3.41,2.53,5.43,6.31,5.79,2.93.27,5.78,1.29,9,2.06-3.73-10.92-7.28-21.35-10.85-31.76-.23-.66-.36-1.37-1.24-1.61C140.36,257.17,136.24,256,131.6,254.67ZM122,282c-3.15-9.44-6.33-18.29-9-27.29-1.08-3.62-2.71-5.8-6.51-6.35-2.53-.37-4.86-1.73-7.65-2,2.89,10,5.7,19.7,8.51,29.43a2,2,0,0,0,1.27,1.58C112.94,278.83,117.21,280.31,122,282Zm-38-11.8c-.87-3.9-1.66-7.47-2.47-11s-1.6-7-2.4-10.49c-1.85,5.57-3.3,11.12-4.87,16.63-.35,1.2.09,1.56,1.06,1.88C78.16,268.11,80.94,269.1,84.05,270.18Zm87.07,9.35c1.26-4,2.38-7.57,3.5-11.14.22-.7.49-1.37-.62-1.63-2.67-.64-5.32-1.35-8.32-2.12C167.55,269.77,169.27,274.46,171.12,279.53Z"/><path class="cls-4" d="M177.15,205.47c9.19,0,18.36.72,27.55.56,6-.1,5.9,0,6.07,6,.31,10.85.63,21.7,1.07,32.54.27,6.92,0,13.88.81,20.79.19,1.67-.39,2.62-2.17,2.64-10.06-.17-20.11-.41-30.17-.46-2.32,0-2.53-.8-1.84-2.69.5-1.33.65-2.8,1.14-4.15s.33-2.42-1.26-2.66-1.79-1.16-1.82-2.51c-.25-12.53-.57-25.06-.82-37.59-.09-4-.64-8-.25-11.95Z"/><path class="cls-4" d="M202.26,319.31c6.84,16.87,13.65,33.75,20.57,50.59.85,2.07.61,3.12-1.51,4-4.63,2-9.17,4.14-13.72,6.29a2.37,2.37,0,0,1-3.28-.77q-23.92-27.76-48-55.45c-1.83-2.11-1.76-2.54.78-3.46,5.78-2.09,11.58-4.12,17.37-6.17,2.27,3.19,3.61,6.88,5.39,10.33,1.67,3.25,1.61,3.27,5,1.86Z"/><path class="cls-4" d="M230.13,292.64c4.42-1.12,8.63-2.86,12.93-4.34,2.58-.88,2.93-.66,3.13,2q2.48,32.94,5,65.89c.19,2.46,1.29,5.25.11,7.28s-4.1,2.2-6.26,3.18c-3.49,1.57-7,3-10.56,4.54-1.27.56-2.16.69-2.79-1q-10.4-26.93-20.88-53.81a2.44,2.44,0,0,1-.09-.47,5.14,5.14,0,0,1,2.07-1.14c6-2.52,12-5.1,18.06-7.53,2.15-.86,3-1.87,2.15-4.28C231.82,299.6,231.06,296.09,230.13,292.64Z"/><path class="cls-3" d="M266.5,267.52a3.11,3.11,0,0,1-1.13-2.71q0-29.2,0-58.42c0-1.54.4-2.41,2.14-2.39,6.62.08,13.24.09,19.87.12-1.25,2.58-.48,5.31-.54,8,0,.89.87,1,1.63,1h20.07c.73,0,1.62,0,1.58-1-.12-2.67.65-5.39-.47-8,1.6.08,3.25-.55,4.77.39-1.35.69-.84,2-.84,3q0,27.45,0,54.89c0,3,0,3-2.79,2.06s-5.73-2-8.58-3c-1.74-.63-2.58-.17-2.5,1.79,0,1.27-.09,2.55-.14,3.82-10.18,0-20.36,0-30.54-.08A11.66,11.66,0,0,0,266.5,267.52Zm31.82-9h5c7.16,0,7.12,0,6.89-7.29-.05-1.55-.57-2.09-2.11-2.08q-9.57.09-19.15,0c-1.62,0-2.37.51-2.27,2.22a42,42,0,0,1,0,5c-.11,1.75.69,2.2,2.28,2.16C292.09,258.44,295.21,258.49,298.32,258.49Zm.14-34.06h5.27c6.7,0,6.64,0,6.52-6.73,0-1.7-.62-2.22-2.26-2.19-4.95.07-9.9,0-14.85,0-6.49,0-6.43,0-6.45,6.42,0,1.84.49,2.6,2.43,2.51C292.23,224.33,295.35,224.43,298.46,224.43Zm0,22.71h5.28c6.62,0,6.58,0,6.46-6.75,0-1.65-.56-2.26-2.23-2.23-4.87.07-9.75,0-14.62,0-7.89.13-6.45-1.47-6.64,6.93,0,1.62.67,2.07,2.16,2C292.07,247.09,295.27,247.14,298.46,247.14Zm.15-11.43h5c6.68,0,6.62,0,6.56-6.61,0-1.8-.65-2.37-2.38-2.34-4.87.08-9.74,0-14.61,0-7.7.09-6.32-1.26-6.5,6.85,0,1.55.51,2.13,2.08,2.09C292.06,235.65,295.34,235.71,298.61,235.71ZM276.15,209.8c-3.45-.62-6.59,3.2-6.76,6.33-.18,3.32,3.1,6.56,6.59,6.6s6.93-3.12,6.69-6.47C282.44,213.13,280.75,209.63,276.15,209.8Z"/><path class="cls-5" d="M235.06,396c1.31,1.61,3.37,1.74,5.1,2.41,20.48,7.85,40.92,15.82,61.52,23.33,11.84,4.31,23.91,8,36,11.63a21,21,0,0,0,12,.37c4.46-1.3,7.52-4.24,10.3-7.72a25.12,25.12,0,0,0,4.41-8.15c.56-1.8,1.71-2.38,3.52-2.63,9.45-1.29,18.88-2.7,28.32-4.1,9.9-1.47,19.8-3,29.71-4.44.66-.1,1.55-.42,2,.29s-.29,1.17-.51,1.74c-2.75,7-8,11.17-15,13.59-10.21,3.52-20.86,5.1-31.29,7.64-11.6,2.83-23.21,5.64-35.05,7.27a27.9,27.9,0,0,1-13.84-1.87Q300,423,267.82,410.68q-17.33-6.62-34.67-13.18c-.66-.25-1.41-.35-1.75-1.11A8.27,8.27,0,0,1,235.06,396Z"/><path class="cls-6" d="M323.14,387.89c5.6-.54,11.21-1.09,16.82-1.61,3.53-.33,3.54-.3,3.53-3.77,0-3.65-.05-7.29-.08-10.94a5.26,5.26,0,0,1,2.63,1.55c4.55,4.05,6.88,9.21,8,15.11,1.88,9.75.45,18.81-5.68,26.68-4.29,5.5-11.05,6.62-16.3,2.74a21,21,0,0,1-7.14-10A39.06,39.06,0,0,1,323.14,387.89Z"/><path class="cls-4" d="M170.59,294.45c1.48-6.5,2.94-13,4.44-19.49a24.74,24.74,0,0,1,.86-2.46c7.8,1.83,15.61,3.61,23.28,5.95a18.12,18.12,0,0,0-3.88,1c-3.84,2-7.79,3.7-9.16,8.54-1,3.59-.66,7-.24,10.57Z"/><path class="cls-5" d="M185.89,298.57c-.42-3.53-.77-7,.24-10.57,1.37-4.84,5.32-6.59,9.16-8.54a18.12,18.12,0,0,1,3.88-1c2.7.78,5.61.5,8.1,2.45s3.74,4.92,5.42,7.49c.86,1.33,1.57,1.66,3.05,1.13,3.38-1.2,6.84-2.17,10.23-3.36,1.56-.55,2.37-.3,2.74,1.4s.93,3.39,1.41,5.08c.94,3.45,1.7,7,2.85,10.34.83,2.41,0,3.42-2.15,4.28-6.06,2.43-12,5-18.06,7.53a5.14,5.14,0,0,0-2.07,1.14,41.83,41.83,0,0,0-8.43,3.38l-17.37,7.24c-3.38,1.41-3.32,1.39-5-1.86-1.78-3.45-3.12-7.14-5.39-10.33-.18-2.23-1.47-4-2.45-5.89s-.46-2.54,1.28-3.16c3.9-1.38,7.74-2.9,11.62-4.33C186.23,300.51,186.94,299.91,185.89,298.57Zm13.41-18.09a28.54,28.54,0,0,0-4.34,1.27c-3.55,1.64-6.51,3.73-7.39,8.07-.69,3.38,0,6.48.84,9.62.41,1.46.11,2.14-1.36,2.68-4,1.43-7.85,3.1-11.82,4.53-1.44.51-1.43,1.13-.86,2.29,2.36,4.79,4.73,9.57,7,14.42.87,1.91,2,1.87,3.62,1.16,6.88-2.95,13.79-5.82,20.69-8.72l24.22-10.19c1-.43,1.75-.9,1.31-2.32-1.4-4.57-2.75-9.15-3.93-13.77-.38-1.48-.9-1.55-2.13-1.09-2.09.78-4.23,1.42-6.35,2.1-5.81,1.83-5.88,1.86-8.95-3.52C207.46,282.89,204.33,280.22,199.3,280.48Z"/><path class="cls-6" d="M185.83,197.31l-10.62,0a3.37,3.37,0,0,1-2.39.31c0-.92.79-1.36,1.34-1.91q11.25-11.28,22.52-22.54c1.07-1.07,1.87-1.81,2.66.22.61,1.55,2.66,1.77,3.29,3.35-1.63,3-4.2,5.34-6.38,7.93-3.28,3.89-6.67,7.68-10,11.53A3.59,3.59,0,0,0,185.83,197.31Z"/><path class="cls-5" d="M323.14,387.89a39.06,39.06,0,0,0,1.79,19.75,21,21,0,0,0,7.14,10c5.25,3.88,12,2.76,16.3-2.74,6.13-7.87,7.56-16.93,5.68-26.68-1.13-5.9-3.46-11.06-8-15.11a5.26,5.26,0,0,0-2.63-1.55,2.84,2.84,0,0,1,0-1.95,14.76,14.76,0,0,1,8.42,7.36c6.65,12.13,6.62,24.41-.11,36.49-4,7.1-11.55,9.93-18.3,7-5.09-2.18-7.91-6.5-9.94-11.42A39.13,39.13,0,0,1,321.21,388Z"/><path class="cls-5" d="M343.24,287.78a2.18,2.18,0,0,1-.5,2C342.54,289,342.2,288.21,343.24,287.78Z"/><path class="cls-6" d="M171.46,197.82c.08-.29.2-.37.4-.07l-.19.1Z"/><path class="cls-5" d="M131.74,307.91C119.09,310,107,312,95,314c-8.4,1.37-16.82,2.66-25.21,4.11a3,3,0,0,1-3-.89,32.41,32.41,0,0,0-5.59-4.84c-5.94-3.85-9.72-1.27-13.11,3.08C41.25,324.2,35.93,334,30.81,343.81c-7,13.45-13,27.41-18.75,41.43-1.82,4.41-4.26,8.61-5.08,13.38-.93,5.41-1.84,10.82-2.55,16.26a18.75,18.75,0,0,0,1.43,8.89,35.56,35.56,0,0,0,7.62,12.65,42.84,42.84,0,0,0,10.4,8c15,7.79,30.58,14.5,46.27,20.9C80,469.31,89.54,474,99.34,478c7.65,3.18,15.3,6.45,23.43,8.29,4.23.95,10.78-1.75,13.35-5.18,3.51-4.67,5.14-10,6.46-15.56.58-2.44,1.53-3.79,4.31-4.44,19.07-4.5,38.08-9.28,57.12-14,3.33-.82,6.67-1.56,10-2.39,1-.25,1.52-.35,1.23,1-1.24,5.94-2.44,11.87-6.32,16.83a14.55,14.55,0,0,1-7.19,4.92c-19.72,6.16-39.49,12.16-59.2,18.38a81.9,81.9,0,0,1-15.8,3.57c-4.66.5-9.22-.5-13.71-1.55a152.93,152.93,0,0,1-31.24-11.25c-15.71-7.53-31.35-15.2-47.17-22.5-7.14-3.31-13.66-7.61-20.35-11.65C6.77,438.06,3.61,430.92,2.89,422.4c-.7-8.3,1.27-16.27,2.64-24.32,1.25-7.35,4.74-13.86,7.87-20.49,6.31-13.37,13-26.56,19.13-40a153.1,153.1,0,0,1,12.7-21.66c1.69-2.53,3.55-5.1,6.52-6.54,2.37-1.14,4.93-1.15,7.4-1.58q15.63-2.73,31.32-5.14a111.34,111.34,0,0,1,16.13-1.79c4.06,0,8-.32,12.1.45C123.62,302.25,127.21,305.33,131.74,307.91Z"/><path class="cls-5" d="M204,409a2,2,0,0,1,1.86,1.23c3.84,7,7.33,14.13,8.93,22.08.45,2.26-.45,2.55-2.12,2.92q-22,4.88-44.06,9.81c-8.15,1.82-16.31,3.63-24.45,5.54-1.44.34-2.14,0-2.42-1.39-1.76-8.61-5.75-16.39-9.26-24.33-.79-1.8-.64-2.4,1.32-2.75,8.69-1.57,17.36-3.25,26-4.88l24.63-4.61C190.83,411.39,197.25,410.21,204,409Z"/><path class="cls-5" d="M127.76,413.38c-1.14.26-1.73-.6-2.29-1.68q-6.47-12.43-13-24.83c-.72-1.35-.26-1.67,1-1.85,13.68-2.06,27.33-4.28,41-6.13,9-1.22,17.92-2.65,26.89-3.93a3.11,3.11,0,0,1,3.43,1.44c4.92,7.17,9.95,14.26,15,21.33,1,1.46.48,1.87-1,2.13-15.5,2.77-30.94,5.86-46.38,9-7.8,1.57-15.63,3-23.45,4.44C128.66,413.33,128.34,413.33,127.76,413.38Z"/><path class="cls-5" d="M106.5,375.93a2,2,0,0,1-1.81-.95c-4.54-6.57-9.08-13.13-13.69-19.64-1.1-1.54-.09-1.79,1-1.95,6-.85,12-1.62,18-2.49,6.69-1,13.37-2.06,20.05-3.06,8.18-1.23,16.45-2.06,24.52-3.78,4.87-1.05,7.3.55,9.57,4.56,2.71,4.77,6,9.21,9.2,13.71,1.07,1.53.78,2.15-.93,2.44l-17.66,3q-16.35,2.76-32.7,5.52C116.84,374.12,111.67,375,106.5,375.93Z"/><path class="cls-5" d="M136,315.84a2.81,2.81,0,0,1,2.7,1.21q7.1,8.08,14.21,16.15c.82.94.62,1.24-.59,1.44q-25.4,4.23-50.77,8.53c-4.7.79-9.43,1.43-14.12,2.26a1.75,1.75,0,0,1-2.12-1q-5.59-8.93-11.25-17.79c-1.13-1.77.34-1.88,1.32-2,4.47-.73,9-1.36,13.44-2l25.71-3.71Z"/><path class="cls-6" d="M18.71,405.7c-.18-9.68,1.73-18.83,6.89-27.14a24.86,24.86,0,0,1,5.7-6.41,13.87,13.87,0,0,1,18,.41,30.34,30.34,0,0,1,8.8,13.49c5.1,15.11,4.65,30-2.37,44.43a23.54,23.54,0,0,1-6.9,8.49c-7.15,5.5-15.82,3.73-21.86-4.33-4.54-6.06-6.55-13-7.8-20.37A58.67,58.67,0,0,1,18.71,405.7Zm4.87,17.23v0c.53,4.54,2.92,8.25,5.7,11.61,6.39,7.72,15.21,7.87,21.88-.41,5.75-7.14,7.7-15.68,8.34-24.48.74-10.41-1-20.44-6.25-29.71-3.59-6.36-9.25-9.92-15.47-8.78-3.45.64-6.6,2.3-8,6-1.42,1.71-3,3.32-4.25,5.14a32.91,32.91,0,0,0-5,13.28,43.31,43.31,0,0,0,2.1,23.9,3.89,3.89,0,0,1,.51,2.29C23.08,422.18,23.06,422.67,23.58,422.93Z"/><path class="cls-6" d="M88.27,445c-.14-7.6,1.68-13.95,5.86-19.5,7.7-10.23,20.45-9.95,27.71.55,7.44,10.74,7.29,26.53-.37,37.18-7.4,10.31-20.64,10-27.88-.6A30.31,30.31,0,0,1,88.27,445Zm30.34-19.69-.73-.5c-2.75-2.69-5.52-5.22-9.84-4.81-1.59.16-3,1.22-4.59,1-3.85.35-6.1,3.2-8.06,5.86-7.77,10.56-7.19,26.41,1,36.5,6.33,7.76,17.51,7.26,23.35-.89,5.53-7.71,6.7-16.24,4.89-25.25-.72-3.61-1.85-7.24-4.66-10h0l-.74-.5a.29.29,0,0,1-.22-.25c0-.47,0-.94-.5-1.19Z"/><path class="cls-5" d="M42.32,345.81c-.34-7.89,2.52-14.33,9-19,4.12-3,12.08-4.1,15.5,2.44A31.59,31.59,0,0,1,70,339.13c1.13,7.22,1.73,14.5-.47,21.71a6.73,6.73,0,0,1-3.26,3.63c-3.68,2.39-13.26,4.35-17.85.37-2.25-2-3.23-4.53-4.2-7.1a39.71,39.71,0,0,1-1.84-7.15A28.22,28.22,0,0,1,42.32,345.81Zm1.92.61c-.68,3.31.62,6.83,1.56,10.33,1.19,4.45,3.6,7.9,8.77,8.5a17,17,0,0,0,5.42-.51c4.8-1,7.46-2.14,8.44-7.33,1.09-5.81.6-11.56-.16-17.28-.51-3.81-1.26-7.71-3.89-10.86-1.15-1.38-2.22-2.68-4.19-2.86-5-.45-8.68,1.68-11.68,5.52A20.22,20.22,0,0,0,44.24,346.42Z"/><path class="cls-5" d="M72,391.22c-.1-8.51,3.23-15.51,8.33-21.79,1.57-1.95,6.12-2.12,8.42-.58a15.11,15.11,0,0,1,6.18,9.3,62,62,0,0,1,1.45,11.57,13.72,13.72,0,0,1-2.08,7.73,8.43,8.43,0,0,1-.55.78c-1.28,1.67-1.56,4.14-3.79,5a14.84,14.84,0,0,1-9.38.5C75.4,402.39,72.17,398,72,392,72,391.65,72,391.33,72,391.22Zm1.9,0c-.61,8.28,5.79,11.57,12.27,11.33,3.26-.12,4.58-2.77,6.05-5.16,3.39-5.51,2.09-11.32,1.19-17.13a14.64,14.64,0,0,0-5.1-9.45,5.16,5.16,0,0,0-7.26.64C76.61,377.27,73.74,383.69,73.94,391.22Z"/><path class="cls-4" d="M189.19,106.46c-9.56.34-17.26-3.37-24.12-9.37a43.05,43.05,0,0,1-14.39-26.63,27.42,27.42,0,0,1,3-17.19c3.64-6.75,9.21-11.5,15.47-15.65,17.28-11.47,36.56-18.6,55.71-26,3.5-1.36,7-2.67,10.5-4.1C237,6.83,238,6.78,238.32,9c.81,5.29,1.75,10.55,2.09,15.9.31,4.94.81,9.89.84,14.84a68,68,0,0,1-1.51,12.1,91.81,91.81,0,0,1-8.3,24.9,36,36,0,0,1-5.51,7.81c-5.34,6-10.57,12.25-17.47,16.65C202.88,104.72,198.87,106.62,189.19,106.46Zm16.45-20a27.08,27.08,0,1,0-27.07-27A27.13,27.13,0,0,0,205.64,86.45Z"/><path class="cls-4" d="M337.08,62.1c.19,9.79-2.09,18-4.9,25.94-1.51,4.31-5.43,6.89-9.22,9.09a67.65,67.65,0,0,1-9.7,4.1c-4,1.53-8,1-12-.11-15.66-4.22-29.09-12-38.74-25.31C257,68.12,254,59.24,252.64,49.86c-1.17-8.32-1.28-16.72-1.48-25.11-.14-5.6,1.68-10.86,2.53-16.29.24-1.5,1.18-1.6,2.49-1.15C274.09,13.46,292.23,19,309.81,26c5.33,2.14,10.71,4.06,15.8,6.87,6.77,3.74,9.29,9.8,10.41,16.77C336.75,54.16,337.34,58.69,337.08,62.1Zm-21.69-8.78a27.1,27.1,0,1,0-27.28,27.27A27.2,27.2,0,0,0,315.39,53.32Z"/><path class="cls-1" d="M99.06,120.14c3.42.94,6.38,3,10.06,3.45,6.2.74,12.18.55,18-2,1.53-.67,3.13-1.17,4.7-1.74a86.86,86.86,0,0,0,37,1.2c5.07-.86,10-2.69,15-4.07l3.45-1c2.55,5.5,5.12,11,7.64,16.53.22.49.95,1.08.23,1.64a1.61,1.61,0,0,1-1.61.06c-5.81-2.56-12.09-3.27-18.19-4.7-9.41-2.2-18.55-.36-27.76,1.15-10.64,1.74-21.2,4.25-32,4.38-6,.06-12-.93-15.51-7C98.49,125.51,98.76,122.85,99.06,120.14Z"/><path class="cls-6" d="M202.12,144.52c-.42-2.56-1.84-4.72-2.86-7-3.31-7.4-6.75-14.74-10.13-22.1l9.62-3.3c1.48,4.4,3.75,8.44,5.59,12.67,2.35,5.41,4.83,10.76,7.32,16.11.53,1.14.51,1.64-.92,1.88C207.85,143.25,205,143.92,202.12,144.52Z"/><path class="cls-5" d="M363.72,377.18c-1,.34-1.41-.48-1.82-1.13-4.42-7.11-8.81-14.24-13.25-21.33-.71-1.13-.3-1.25.76-1.42q21-3.53,42.07-7.1c3.76-.64,7.54-1.14,11.3-1.8a1.71,1.71,0,0,1,2,.85q7.56,10.61,15.2,21.16c1.45,2-.44,2-1.38,2.15-3.43.62-6.91,1-10.36,1.58-11.29,1.83-22.58,3.7-33.87,5.52C370.81,376.23,367.26,376.68,363.72,377.18Z"/><path class="cls-5" d="M429.71,398.45c.37,1.35-1,1.54-2.15,1.71-5.9.9-11.8,1.74-17.7,2.61q-11.89,1.77-23.8,3.58c-5.33.82-10.67,1.69-16,2.57-1.55.26-2-.37-1.88-1.82.22-2.06.82-4,1-6.12.37-4.9-1.4-9.42-2.23-14.1-.29-1.61-.08-2.2,1.69-2.49,11.06-1.8,22.1-3.74,33.14-5.63,7.05-1.21,14.11-2.32,21.14-3.65,1.95-.36,2.81,0,3.45,2A53.6,53.6,0,0,1,429.22,394,39.91,39.91,0,0,0,429.71,398.45Z"/><path class="cls-5" d="M346.54,344.63c3.9-5.95,8.45-11.41,12.65-17.13,2.64-3.6,5.42-7.1,8.14-10.65,3.52.27,7-.4,10.47-.66a2.39,2.39,0,0,1,2.37,1q8.58,10.25,17.21,20.43c.35.41,1,.72.82,1.35s-1,.4-1.47.46q-8,1-16.08,1.86c-7,.79-14,1.7-21.06,2.26C355.24,343.92,351,345,346.54,344.63Z"/><path class="cls-6" d="M206.92,175.75c-2.23,0-5.43-2.41-6.39-4.51a34,34,0,0,1-3.12-14.3c0-2.68.08-5.51,2.07-7.86.92-1.09,1.55-1.34,2.76-.7,4.86,2.58,6.84,7.06,8,12.06a33.67,33.67,0,0,1,.51,10.83C210.53,174.59,209.63,175.74,206.92,175.75Z"/><path class="cls-4" d="M199.13,146l-.17.05a.52.52,0,0,1,0-.21s.1,0,.16-.05Z"/><path class="cls-6" d="M360.54,262.87c.06,2.24-.61,3.75-.51,5.37a2.49,2.49,0,0,0,1.74,2.53c2.69,1,5.32,2.16,8,3.11,1.14.4,1.29.91.85,1.91-2.14,4.8-4.28,9.6-6.35,14.43-.56,1.31-1.38,1-2.31.67C356.67,289,351.36,287,346,285.11c-9-3.23-18-6.49-27-9.59-1.87-.65-2.3-1.37-1.6-3.22,1.55-4.1,2.94-8.25,4.32-12.41.43-1.32.93-1.75,2.38-1.24,1.94.69,4.06.87,6,1.55,2.24.8,3.69.19,4.67-1.85,1.41-2.92,3.81-4.82,6.47-6.52a12.7,12.7,0,0,1,16.26,2.07C360,256.53,360.14,260.11,360.54,262.87Z"/><path class="cls-6" d="M42.44,237.4c2.53.76,5.35,1.63,8.17,2.46,4,1.2,8.1,2.4,12.15,3.57,1.64.48,2.47,1.12,1.59,3.07-1.14,2.53-1.94,5.23-2.89,7.85-.34.93-.6,1.81-2,1.27Q49.74,251.9,40,248.34c-1.21-.44-1.79-1-1.4-2.27.79-2.59,1.59-5.17,2.44-7.75C41.17,237.83,41.37,237.21,42.44,237.4Z"/><path class="cls-4" d="M216.06,241.17c0-2.8.05-5.6,0-8.39,0-1.59.45-2.35,2.17-2.33,5,.07,9.92.06,14.88,0,1.55,0,2.12.59,2.14,2.13.12,8.7.3,17.41.47,26.11,0,1.28,0,2.41-1.78,2.45q-7.66.17-15.31.49c-1.56.07-2.15-.44-2.07-2C216.83,253.45,215.72,247.33,216.06,241.17Zm7.64,3.19c10.28-.72,7.77.67,8.12-7.77a1.92,1.92,0,0,0,0-.24c.1-1.5-.7-2-2.08-1.87-2,.14-4,.28-6,.34-4.84.15-4.87.13-4.83,5C219,245.05,218.14,244.43,223.7,244.36Z"/><path class="cls-3" d="M213.11,217.09a5.79,5.79,0,0,1,.11-5.31c8.34,0,16.68-.07,25,0,2.93,0,5.9.27,8.79.16,5.65-.21,11.29-.09,16.93-.1a6.18,6.18,0,0,1,.13,5.28Z"/><path class="cls-3" d="M264.08,217.91a4.39,4.39,0,0,1,.46,2.31c.24,2-.64,2.6-2.6,2.59-11.68-.07-23.35,0-35,0h-10.8c-3.76,0-4.42-1.07-3-4.88Z"/><path class="cls-3" d="M213.16,211.26c-.66-.73-.48-1.64-.56-2.5-.18-1.89.66-2.52,2.51-2.5,6.06.08,12.13,0,18.19,0h27.53c4,0,4.61.93,3.22,5Z"/><path class="cls-2" d="M309.63,204.1c1.12,2.61.35,5.33.47,8,0,1-.85,1-1.58,1H288.45c-.76,0-1.65-.1-1.63-1,.06-2.65-.71-5.38.54-8Z"/><path class="cls-5" d="M264.08,217.91l-51,0c0-.27,0-.53,0-.8h51C264.08,217.36,264.08,217.64,264.08,217.91Z"/><path class="cls-5" d="M213.16,211.26h50.89l-.09.55c-5.64,0-11.28-.11-16.93.1-2.89.11-5.86-.15-8.79-.16-8.34,0-16.68,0-25,0Z"/><path class="cls-1" d="M131.6,254.67c4.64,1.32,8.76,2.5,12.89,3.64.88.24,1,.95,1.24,1.61,3.57,10.41,7.12,20.84,10.85,31.76-3.21-.77-6.06-1.79-9-2.06-3.78-.36-5.26-2.38-6.31-5.79C138.31,274.23,135,264.74,131.6,254.67Z"/><path class="cls-1" d="M122,282c-4.82-1.67-9.09-3.15-13.38-4.61a2,2,0,0,1-1.27-1.58c-2.81-9.73-5.62-19.45-8.51-29.43,2.79.25,5.12,1.61,7.65,2,3.8.55,5.43,2.73,6.51,6.35C115.7,263.69,118.88,272.54,122,282Z"/><path class="cls-1" d="M84.05,270.18c-3.11-1.08-5.89-2.07-8.68-3-1-.32-1.41-.68-1.06-1.88,1.57-5.51,3-11.06,4.87-16.63.8,3.5,1.61,7,2.4,10.49S83.18,266.28,84.05,270.18Z"/><path class="cls-1" d="M171.12,279.53c-1.85-5.07-3.57-9.76-5.44-14.89,3,.77,5.65,1.48,8.32,2.12,1.11.26.84.93.62,1.63C173.5,272,172.38,275.53,171.12,279.53Z"/><path class="cls-2" d="M298.32,258.49c-3.11,0-6.23-.05-9.34,0-1.59,0-2.39-.41-2.28-2.16a42,42,0,0,0,0-5c-.1-1.71.65-2.23,2.27-2.22q9.57.09,19.15,0c1.54,0,2.06.53,2.11,2.08.23,7.3.27,7.29-6.89,7.29Z"/><path class="cls-2" d="M298.46,224.43c-3.11,0-6.23-.1-9.34,0-1.94.09-2.44-.67-2.43-2.51,0-6.42,0-6.42,6.45-6.42,4.95,0,9.9.05,14.85,0,1.64,0,2.23.49,2.26,2.19.12,6.73.18,6.73-6.52,6.73Z"/><path class="cls-2" d="M298.46,247.14c-3.19,0-6.39,0-9.59,0-1.49,0-2.2-.41-2.16-2,.19-8.4-1.25-6.8,6.64-6.93,4.87-.08,9.75,0,14.62,0,1.67,0,2.2.58,2.23,2.23.12,6.75.16,6.75-6.46,6.75Z"/><path class="cls-2" d="M298.61,235.71c-3.27,0-6.55-.06-9.82,0-1.57,0-2.12-.54-2.08-2.09.18-8.11-1.2-6.76,6.5-6.85,4.87-.06,9.74,0,14.61,0,1.73,0,2.36.54,2.38,2.34.06,6.62.12,6.61-6.56,6.61Z"/><path class="cls-5" d="M276.15,209.8c4.6-.17,6.29,3.33,6.52,6.46.24,3.35-3.21,6.51-6.69,6.47s-6.77-3.28-6.59-6.6C269.56,213,272.7,209.18,276.15,209.8Z"/><path class="cls-6" d="M199.3,280.48c5-.26,8.16,2.41,10.51,6.53,3.07,5.38,3.14,5.35,8.95,3.52,2.12-.68,4.26-1.32,6.35-2.1,1.23-.46,1.75-.39,2.13,1.09,1.18,4.62,2.53,9.2,3.93,13.77.44,1.42-.28,1.89-1.31,2.32L205.64,315.8c-6.9,2.9-13.81,5.77-20.69,8.72-1.66.71-2.75.75-3.62-1.16-2.23-4.85-4.6-9.63-7-14.42-.57-1.16-.58-1.78.86-2.29,4-1.43,7.85-3.1,11.82-4.53,1.47-.54,1.77-1.22,1.36-2.68-.88-3.14-1.53-6.24-.84-9.62.88-4.34,3.84-6.43,7.39-8.07A28.54,28.54,0,0,1,199.3,280.48Z"/><path class="cls-4" d="M29.74,377.1c1.43-3.66,4.58-5.32,8-6,6.22-1.14,11.88,2.42,15.47,8.78,5.23,9.27,7,19.3,6.25,29.71-.64,8.8-2.59,17.34-8.34,24.48-6.67,8.28-15.49,8.13-21.88.41-2.78-3.36-5.17-7.07-5.7-11.61,1.4,1.11,2,2.82,3.08,4.18,4.78,6.05,11.69,7.71,17.53,3.91a19.14,19.14,0,0,0,6.75-7.65c5.8-11.76,5.8-23.81,1.55-36a22.33,22.33,0,0,0-4.12-7C43.76,374.91,37.71,372,29.74,377.1Z"/><path class="cls-5" d="M29.74,377.1c8-5.07,14-2.19,18.62,3.25a22.33,22.33,0,0,1,4.12,7c4.25,12.19,4.25,24.24-1.55,36A19.14,19.14,0,0,1,44.18,431c-5.84,3.8-12.75,2.14-17.53-3.91-1.07-1.36-1.68-3.07-3.08-4.18v0a1.36,1.36,0,0,0-.49-1.22,3.89,3.89,0,0,0-.51-2.29,43.31,43.31,0,0,1-2.1-23.9,32.91,32.91,0,0,1,5-13.28C26.76,380.42,28.32,378.81,29.74,377.1ZM53.8,403c-.11-.84-.32-2.18-.45-3.52-.76-7.71-2.83-14.81-8.88-20.25a9.59,9.59,0,0,0-10.8-1.91,16.62,16.62,0,0,0-7.67,7.6c-3.74,6.78-4.74,14.12-4.36,21.71A34.38,34.38,0,0,0,27.48,425c5.75,8.27,14.73,8.12,20.36-.21C52.21,418.32,53.32,411,53.8,403Z"/><path class="cls-4" d="M23.09,421.71a1.36,1.36,0,0,1,.49,1.22C23.06,422.67,23.08,422.18,23.09,421.71Z"/><path class="cls-4" d="M120,427.25c2.81,2.74,3.94,6.37,4.66,10,1.81,9,.64,17.54-4.89,25.25-5.84,8.15-17,8.65-23.35.89-8.24-10.09-8.82-25.94-1-36.5,2-2.66,4.21-5.51,8-5.86-1.06,1.3-2.55,2.11-3.64,3.44-3.86,4.7-5.47,10.24-6,16.12-.62,7.59.69,14.82,5.31,21.1,5.37,7.28,13.6,7.23,19,0s5.82-15.31,5-23.74C122.83,434.18,121.06,430.82,120,427.25Z"/><path class="cls-5" d="M120,427.25c1,3.57,2.81,6.93,3.17,10.69.8,8.43.33,16.6-5,23.74s-13.64,7.27-19,0c-4.62-6.28-5.93-13.51-5.31-21.1.48-5.88,2.09-11.42,6-16.12,1.09-1.33,2.58-2.14,3.64-3.44,1.65.24,3-.82,4.6-1,4.32-.41,7.09,2.12,9.84,4.81l.73.5,0,0a1.45,1.45,0,0,0,.5,1.19.29.29,0,0,0,.22.25l.74.5Zm1.47,16.38c.31-5.94-.79-11.52-4.34-16.34-1.91-2.59-4-5.16-7.74-5.39-5.26-.32-8.18,2.89-10.24,6.88-5,9.78-4.76,19.74,0,29.59a12.83,12.83,0,0,0,3.7,4.64c4.93,3.77,10.42,2.6,14.32-3.11A25.38,25.38,0,0,0,121.49,443.63Z"/><path class="cls-4" d="M119.09,426.51a1.45,1.45,0,0,1-.5-1.19C119.09,425.57,119.09,426,119.09,426.51Z"/><path class="cls-4" d="M118.61,425.34l-.73-.5Z"/><path class="cls-4" d="M120.05,427.26l-.74-.5Z"/><path class="cls-6" d="M44.24,346.42a20.22,20.22,0,0,1,4.27-14.49c3-3.84,6.68-6,11.68-5.52,2,.18,3,1.48,4.19,2.86,2.63,3.15,3.38,7.05,3.89,10.86.76,5.72,1.25,11.47.16,17.28-1,5.19-3.64,6.34-8.44,7.33a17,17,0,0,1-5.42.51c-5.17-.6-7.58-4.05-8.77-8.5C44.86,353.25,43.56,349.73,44.24,346.42Z"/><path class="cls-6" d="M73.94,391.22c-.2-7.53,2.67-14,7.15-19.77a5.16,5.16,0,0,1,7.26-.64,14.64,14.64,0,0,1,5.1,9.45c.9,5.81,2.2,11.62-1.19,17.13-1.47,2.39-2.79,5-6.05,5.16C79.73,402.79,73.33,399.5,73.94,391.22Z"/><path class="cls-3" d="M205.64,86.45a27.08,27.08,0,1,1,27.55-27A27.07,27.07,0,0,1,205.64,86.45Zm.25-2c13.84,0,25.57-11.34,25.39-24.89-.19-13.94-10.62-25.26-25.52-25.27a25.08,25.08,0,1,0,.13,50.16Z"/><path class="cls-3" d="M315.39,53.32A27.1,27.1,0,1,1,288.4,26,27.15,27.15,0,0,1,315.39,53.32Zm-2,.17c0-14-11.19-25.52-24.94-25.54a25.46,25.46,0,0,0-25.34,25.24c0,13.74,11.43,25.47,24.88,25.5A25.54,25.54,0,0,0,313.43,53.49Z"/><path class="cls-5" d="M223.7,244.36c-5.56.07-4.71.69-4.75-4.56,0-4.85,0-4.83,4.83-5,2-.06,4-.2,6-.34,1.38-.1,2.18.37,2.08,1.87a1.92,1.92,0,0,1,0,.24C231.47,245,234,243.64,223.7,244.36Zm1.37-2c4.91-.07,4.85-.07,4.87-4,0-1.56-.29-2.09-2-1.72a15.54,15.54,0,0,1-4.52.07c-1.94-.16-2.67.46-2.57,2.51.16,3.19,0,3.2,3.27,3.17Z"/><path class="cls-6" d="M53.8,403c-.48,8-1.59,15.36-6,21.82-5.63,8.33-14.61,8.48-20.36.21a34.38,34.38,0,0,1-5.84-18.4c-.38-7.59.62-14.93,4.36-21.71a16.62,16.62,0,0,1,7.67-7.6,9.59,9.59,0,0,1,10.8,1.91c6.05,5.44,8.12,12.54,8.88,20.25C53.48,400.78,53.69,402.12,53.8,403Z"/><path class="cls-6" d="M121.49,443.63a25.38,25.38,0,0,1-4.33,16.27c-3.9,5.71-9.39,6.88-14.32,3.11a12.83,12.83,0,0,1-3.7-4.64c-4.73-9.85-5-19.81,0-29.59,2.06-4,5-7.2,10.24-6.88,3.79.23,5.83,2.8,7.74,5.39C120.7,432.11,121.8,437.69,121.49,443.63Z"/><path class="cls-5" d="M205.89,84.48a25.08,25.08,0,1,1-.13-50.16c14.9,0,25.33,11.33,25.52,25.27C231.46,73.14,219.73,84.48,205.89,84.48Zm.47-47.07c-12-.46-22.12,9.84-22,21.65.14,11.41,8.78,22,21,21.56,13.19-.43,21.69-8.41,22.26-21.36C228.13,47.71,217.48,36.87,206.36,37.41Z"/><path class="cls-5" d="M313.43,53.49A25.54,25.54,0,0,1,288,78.69c-13.45,0-24.9-11.76-24.88-25.5A25.46,25.46,0,0,1,288.49,28C302.24,28,313.45,39.45,313.43,53.49Zm-4.16-.3C309,40.3,299.88,31.46,288,31.35A21.25,21.25,0,0,0,266.33,52.8c-.06,12.82,9.35,21.57,20.87,21.53C299.46,74.29,309.33,65.91,309.27,53.19Z"/><path class="cls-2" d="M225.07,242.39h-.95c-3.24,0-3.11,0-3.27-3.17-.1-2,.63-2.67,2.57-2.51a15.54,15.54,0,0,0,4.52-.07c1.71-.37,2,.16,2,1.72C229.92,242.32,230,242.32,225.07,242.39Z"/><path class="cls-3" d="M206.36,37.41c11.12-.54,21.77,10.3,21.27,21.85-.57,12.95-9.07,20.93-22.26,21.36-12.2.39-20.84-10.15-21-21.56C184.24,47.25,194.33,37,206.36,37.41Zm4,3.92c1.26,0,1.81,0,2.37,0s.82-.2.81-.67a1.27,1.27,0,0,0-.44-.76c-1.94-1.68-9.63-2.16-11.89-.75-.39.24-1,.41-.76,1s.8.7,1.38.71C204.9,40.92,208,40.64,210.35,41.33Z"/><path class="cls-3" d="M309.27,53.19c.06,12.72-9.81,21.1-22.07,21.14-11.52,0-20.93-8.71-20.87-21.53A21.25,21.25,0,0,1,288,31.35C299.88,31.46,309,40.3,309.27,53.19ZM288,32.24a12,12,0,0,0-7.09,1.64c-.48.31-1.13.77-.74,1.56a1.09,1.09,0,0,0,1.22.56,32.47,32.47,0,0,1,13.49.47c.68.15,1.79.47,2.11-.51s-.63-1.68-1.37-2A17,17,0,0,0,288,32.24Z"/><path class="cls-5" d="M210.35,41.33c-2.35-.69-5.45-.41-8.53-.46-.58,0-1.17-.12-1.38-.71s.37-.78.76-1c2.26-1.41,10-.93,11.89.75a1.27,1.27,0,0,1,.44.76c0,.47-.39.65-.81.67S211.61,41.33,210.35,41.33Z"/><path class="cls-5" d="M288,32.24A17.05,17.05,0,0,1,295.62,34c.74.31,1.7,1,1.37,2s-1.43.66-2.11.51A32.47,32.47,0,0,0,281.39,36a1.09,1.09,0,0,1-1.22-.56c-.39-.79.26-1.25.74-1.56A11.93,11.93,0,0,1,288,32.24Z"/></g></g></svg>