<svg xmlns="http://www.w3.org/2000/svg" viewBox="0 0 88.79 86.37"><defs><style>.cls-1{fill:#fbba10;}.cls-2{fill:#fcab00;}.cls-3{fill:#121819;}.cls-4{fill:#9494a5;}.cls-5{fill:#414548;}.cls-6{fill:#fafafa;}</style></defs><title>Element 4</title><g id="Ebene_2" data-name="Ebene 2"><g id="Ebene_1-2" data-name="Ebene 1"><path class="cls-1" d="M3.88,65.84c-.77-8.05-1.55-16.11-1.61-24.21.39-1.81-1.74-5.35,2.9-4.25L12,39l13.55,3.61,10.53,2.7c1,.74,2,.47,3.06.35,3.5,1.83,7.35,2.37,11.15,3.13.25.84.94.77,1.59.76l-.09,2.54c-.32,3.37-1.51,6.79.69,10l.09,7.8c-1,3.3-.36,6.68-.44,10a1.78,1.78,0,0,0-1.79.21A5.78,5.78,0,0,0,46,78.74c-4.83-3-10.52-3.5-15.77-5.26-2.42-.81-4.84-2.18-7.59-1.4l-1.5-.74-.81,0A60.87,60.87,0,0,0,7.05,67.46c-.53-1.4-1.58-.85-2.52-.67l.06,0C4.7,66.25,4.38,66,3.88,65.84Z"/><path class="cls-2" d="M52.54,69.83,52.45,62c-.42-3.31.7-6.73-.69-10l.09-2.54c1-1.41-.13-3.57,1.65-4.72a9.25,9.25,0,0,0,4.33-2.19c.39-.07,1.07.19.76-.67l-.07.07c2.93.24,4.85-1.75,7-3.17l5.62-3.34c2,0,3.46-1.23,5.09-2,2.64-1.31,5.15-7.69,3.31-9.29s-3.74,1.17-5.72,1.7c-.61.16-1.56.18-1.67,1.18l-4.39,2.07c-2.56.7-5.09,1.46-7.12,3.31l-4.29,2.33c-1.92-1-2.89,1.21-4.48,1.37l-.82-.38,0-.14c.18-1.71,1.68-2.68,2.29-4.15,5.24-2,10.63-3.72,14.94-7.57,4.31-.07,7.6-2.69,11.22-4.47l1.34-.15c-.14-.66-.29-1.32-1.18-1.3l0,0c.41-.87,0-1.29-.82-1.53l0,.06c-.68-1.11-1.74-2.27.39-3,1.62,1.49,3.9,1.19,5.76,2.1,2.3,1.11,3.61,2.53,2.74,5.2a24.73,24.73,0,0,1-4.08,2.44c-1.77.68-3,1.77-2.39,3.53.75,2,2.65.91,3.76.3,2-1.12,2.61.17,2.42,1.51-.92,6.46,0,12.91-.18,19.35-.1,4.13,1.25,8.44-.93,12.43-1.67.56-3.36,1.08-4.45,2.62l-6.86,4.33C68.74,69.56,63.58,73.82,58,77.26l-1.54,1.51c-1.25-.41-2.1.68-3.19.83C52.88,76.35,53.38,73.05,52.54,69.83Z"/><path class="cls-1" d="M68.26,23.88c-4.31,3.85-9.7,5.57-14.94,7.57-.71-2.12.61-5.35-3.17-5.79l-.32-.87c2.53-1.67-.1-2.43-.75-3.11C45.63,18,42,14.52,38.46,10.94c-.56-.57-1.69-1.07-1.21-2,.31-.6,1.81-.82.6-1.76-.77-.61-1.58.34-2.34.65a3.75,3.75,0,0,0-2.37,3.46H30.06a1.82,1.82,0,0,1-.4,0c0-.26-.05-.53-.07-.79,2.9,0,1.8-2.18,2-3.64l.77-.06c.37.4.54.25.59-.22a5.7,5.7,0,0,1,3.77-1.48c1.55,1,2,0,2.39-1.29l1.4-.18c1.4.5,2.6.5,3.07-1.26l.84.12a1.65,1.65,0,0,1,.52,2c-.71.18-1.9-.38-1.79,1.07,0,.46.6,1,1,.53.69-.8,2.44.37,2.47-1.43l4-.92,2.77,2.51c0,1.7,1,2.38,2.49,2.71,2.62,2.4,5.16,4.89,7.81,7.26C65.88,18.21,69.08,19.94,68.26,23.88ZM41.59,5.51c-.29.17-.66.31-.65.38a1.63,1.63,0,0,0,.37,1c.4.31.71,0,.69-.42A2.7,2.7,0,0,0,41.59,5.51Z"/><path class="cls-3" d="M81.93,63c1.09-1.54,2.78-2.06,4.44-2.62a8.72,8.72,0,0,1-4,8.33c-4.88,3.32-10,6.22-14.91,9.54-1.51,1-4,1.1-4.22,3.68l-.16-.18.15.18c-3.13-.45-5.13,2.41-8.05,2.4.16,1.43,1.59.92,1.85,1.83a12,12,0,0,1-6.69-.69l1.84-1.41c-5.61-1.94-11-4-16.87-4.57l0,0c-.5-.82-1-.81-1.53,0a1.87,1.87,0,0,0-.35.57c-1.9-.21-1.83-3.24-4.14-2.87-.3-1.92-1.83-1.41-2.95-1.34-2.79.19-3.86-1.18-3.79-3.78,2.75-.78,5.17.59,7.59,1.4,5.25,1.76,10.94,2.25,15.77,5.26-4.8-.19-9.15-2.56-13.92-3,5.53,2.2,11.18,3.91,16.82,5.64,1.37.42,1.47-.36,1.41-1.36a1.78,1.78,0,0,1,1.79-.21c.49.47.85.29,1.12-.25,1.09-.15,1.94-1.24,3.18-.83-.53,1-1.68,2.38.28,2.89a3,3,0,0,0,3.89-2.45c.42-2-1.21-2-2.62-1.95,5.63-3.44,10.79-7.7,17.12-9.93,1.1,3,3.27,1.8,5,1.07a5,5,0,0,0,3.45-5C83.56,63.23,82.5,63.12,81.93,63Z"/><path class="cls-4" d="M68.26,23.88c.82-3.94-2.38-5.67-4.59-7.65C61,13.86,58.48,11.37,55.86,9A1.78,1.78,0,0,1,57.17,6.5c.91-.31,2.29-.38,2.15-1.95,3.37-1.94,6.11-1.26,8.56,1.73,1.91,2.34,5.52,3,6.59,6.24a1.23,1.23,0,0,0-.34.11,1.2,1.2,0,0,0-.23.22c1.62,1.29,2.64,3.39,5,3.68l0-.06c-.72,1.05-.09,1.37.82,1.53l0,0c-.06.48-.11,1-.16,1.45C75.86,21.19,72.57,23.81,68.26,23.88Z"/><path class="cls-5" d="M50.15,25.66c3.78.44,2.46,3.67,3.17,5.79-.61,1.47-2.11,2.44-2.29,4.15-3.36-.83-6.72-1.69-10.1-2.45-1.23-.28-2.21-.46-2,1.69.37,3.56.14,7.19.17,10.78-1,.12-2.11.39-3.06-.35C38.83,37.56,37,32.9,30.12,30c-.65-.63-1.32-1.13-2.27-.17l2.29.14c-2.37,1.34-4.86.69-6.83-.43C20.53,28,17.46,29.33,14.65,28c-1.21-.58-.43,2.58-2.17,2.82-.46-2.46,0-5.25-3.91-5.74A13.87,13.87,0,0,1,3.5,23.37c-1.29-.76-2,.13-2.78.83C0,22.25-.91,20.26,2.17,19.49a5.31,5.31,0,0,0,5.55,2.27C8.9,21.87,9,20.7,9.58,20.15c1.15.82,1.06,2.67,2.95,3,4.47.76,8.75,2.6,13.4,2.37-.1.43.09.53.47.4l.86.26a6.1,6.1,0,0,0,4.81,2.19c.75.75,1.82,1.36,2.58.64s-.11-1.5-.84-2l0,0a5.86,5.86,0,0,1,.19-.72l1,0h1.16l.75.69,0-.08c-.27.94.5,1.54.78,2.3l-1,.26.27.38.69-.63.69.4c.32,1.24,1.33,1.12,2.27,1.15,2.3-.57,4.46.26,6.56.87,3,.88,3.44-.76,3.37-3A26.88,26.88,0,0,0,50.15,25.66Z"/><path class="cls-5" d="M63.29,81.93c.2-2.58,2.71-2.66,4.22-3.68,4.88-3.32,10-6.22,14.91-9.54a8.72,8.72,0,0,0,4-8.33c2.19-4,.84-8.3.94-12.43.15-6.44-.74-12.89.18-19.35.19-1.34-.38-2.63-2.42-1.51-1.11.61-3,1.67-3.76-.3-.66-1.76.62-2.85,2.39-3.53a24.73,24.73,0,0,0,4.08-2.44,6.32,6.32,0,0,1,.68,3.6c.08,10.11,0,20.22.31,30.32.29,8.93-2.58,15.58-11.29,19.31-3.62,1.56-6.78,4.2-10.12,6.41C66.11,81.29,64.92,82.19,63.29,81.93Z"/><path class="cls-4" d="M.72,24.2c.8-.7,1.49-1.59,2.78-.83a13.87,13.87,0,0,0,5.07,1.69c3.92.49,3.45,3.28,3.91,5.74l.39.7L12,39l-6.8-1.58L.85,33C-.74,30.09,1.78,27.12.72,24.2Z"/><path class="cls-4" d="M25.93,25.51c-4.65.23-8.93-1.61-13.4-2.37-1.89-.32-1.8-2.17-2.94-3,.66-.88-.88-2.11.45-2.89.47-.5,1.31-.8,1-1.75l.26-.06c1.87.49,3.33.17,3.86-2,.2-.9.39-1.83,1.5-.66,1.95,1.82.18,4.05.66,6,.66,2.69,2.33,4.39,5.15,4.39A4.54,4.54,0,0,1,26.23,25a1,1,0,0,1,.11.62A2,2,0,0,0,25.93,25.51Z"/><path class="cls-5" d="M26.23,25a4.54,4.54,0,0,0-3.8-1.78c-2.82,0-4.49-1.7-5.15-4.39-.48-2,1.29-4.2-.66-6l8.23-3.07c-1.75,2.07-2.56,3.7,1.29,4.24,1.23.17,1.22,2,1.72,3,.37.8-.08,2.08,1.38,2.19-.11,1.11-1.85,1.91-.61,3.27.29,1-.72,1.39-.89,2.16v0Zm.15-6.43c.1-4.63-3.54-2-5.17-3.33-.9-.71-2.34,1.12-2.35,2.62a3.54,3.54,0,0,0,3.88,3.69A3.57,3.57,0,0,0,26.38,18.56Z"/><path class="cls-5" d="M22.64,72.08c-.07,2.6,1,4,3.79,3.78,1.12-.07,2.65-.58,2.95,1.34-3,1.58-6,1-9,0-2.62-3-6.25-3.19-9.8-3.66-.69-.1-1.72,0-.82-1.18,4.11-.53,7.6,2.1,11.58,2.56l-.17-3.55Z"/><path class="cls-3" d="M21.14,71.34l.17,3.55c-4-.46-7.47-3.09-11.58-2.56l.1-.22-.66-.58-.14.2.78.39c-.06,1.75-1.1,1.35-1.91.73-2-1.52-3.69-3.24-3.37-6.06.94-.18,2-.73,2.52.67-1.13.24-1.87.8-.29,1.35,3.8,1.33,7.69,2.42,11.54,3.65,1.14.36,1.94.29,2-1.14Z"/><path class="cls-4" d="M29.24,19.2c-1.46-.11-1-1.39-1.38-2.19-.5-1.07-.49-2.87-1.72-3-3.85-.54-3-2.17-1.29-4.24.09-1.16.37-1.93,1.56-.74,0,2.33,2.26,1.42,3.25,2.31a1.38,1.38,0,0,0,.4,0A17.36,17.36,0,0,1,29.24,19.2Z"/><path class="cls-5" d="M35.36,79.49c5.84.56,11.26,2.63,16.87,4.57l-1.84,1.41c-5.22-.83-10-3-15-4.54Z"/><path class="cls-4" d="M53.37,6.26c-.92-.84-1.84-1.68-2.77-2.51-1-2.12,2.68-1.69,1.95-3.65,1.71-.32,3,0,3.07,2.08C55.35,3.8,57.11,6.54,53.37,6.26Z"/><path class="cls-3" d="M10,17.25c-1.33.78.21,2-.45,2.89-.62.56-.69,1.73-1.87,1.62.29-3-1.74-3-3.81-2.84,2.36-1.36,4.66-2.85,7.36-3.47h0L11,15.5A1.39,1.39,0,0,0,10,17.25Z"/><path class="cls-5" d="M.85,33l4.32,4.38c-4.64-1.1-2.51,2.44-2.9,4.25C.17,39,1.21,35.89.85,33Z"/><path class="cls-5" d="M52.55.1c.73,2-3,1.53-1.95,3.65l-4,.92L45,4.5a1.65,1.65,0,0,0-.52-2C47.46,2.74,49.75.56,52.55.1Z"/><path class="cls-5" d="M57.08,86.16c-.26-.91-1.69-.4-1.85-1.83,2.92,0,4.92-2.85,8.05-2.4C61.94,84.41,59.55,85.34,57.08,86.16Z"/><path class="cls-2" d="M3.91,18.92c2.07-.13,4.1-.2,3.81,2.84a5.31,5.31,0,0,1-5.55-2.27Z"/><path class="cls-3" d="M53.37,6.26c3.74.28,2-2.46,2.25-4.08,1.27.73,1,3.85,3.7,2.37.14,1.57-1.24,1.64-2.15,2A1.78,1.78,0,0,0,55.86,9C54.4,8.64,53.33,8,53.37,6.26Z"/><path class="cls-3" d="M10.55,73.51c3.55.47,7.18.71,9.8,3.66A27.38,27.38,0,0,1,10.55,73.51Z"/><path class="cls-3" d="M78.89,16.53c-2.35-.29-3.37-2.39-5-3.68a1.2,1.2,0,0,1,.23-.22,1.23,1.23,0,0,1,.34-.11l4.81,1C77.15,14.26,78.21,15.42,78.89,16.53Z"/><path class="cls-2" d="M31.62,6.87c-.23,1.46.87,3.67-2,3.64-.16-.89-.79-1.73-.23-2.68Z"/><path class="cls-5" d="M29.36,7.83c-.56.95.07,1.79.23,2.68,0,.26,0,.53.07.79-1-.89-3.27,0-3.25-2.31C27.68,9.33,28.29,8,29.36,7.83Z"/><path class="cls-5" d="M11.26,15.44h0c1.08-1,1.88-2.65,3.85-2C14.59,15.61,13.13,15.93,11.26,15.44Z"/><path class="cls-2" d="M43.61,2.38c-.47,1.76-1.67,1.76-3.07,1.26C41.33,2.65,42.63,2.9,43.61,2.38Z"/><path class="cls-2" d="M39.14,3.82c-.35,1.26-.84,2.27-2.39,1.29Z"/><path class="cls-3" d="M35.36,79.49v1.44l-1.83-.86a1.87,1.87,0,0,1,.35-.57H35.4Z"/><path class="cls-5" d="M9.81,72.12,9,71.73l.14-.2.66.58Z"/><path class="cls-3" d="M3.88,65.84c.5.15.82.41.71,1C3.71,67,3.77,66.42,3.88,65.84Z"/><path class="cls-2" d="M33,6.59c0,.47-.22.62-.59.22A.9.9,0,0,1,33,6.59Z"/><path class="cls-3" d="M12.87,31.5l-.39-.7c1.74-.24,1-3.4,2.17-2.82,2.81,1.35,5.88,0,8.66,1.57,2,1.12,4.46,1.77,6.83.43l0,0c6.9,2.89,8.71,7.55,5.93,15.26l-10.53-2.7c.08-.86.21-1.73.23-2.6.1-5.16-.38-5.8-5.23-6.87C18,32.54,15.42,32,12.87,31.5Zm22.39,6.3.07-1.34c-2.4-1.66-3.37-1.64-3.69.06V38c-.5,2.27,1.36,2.36,2.62,2.41,1.75.07,1.07-1.41,1-2.39Zm-2.91-4.43-.42-.8c-.27.15-.74.29-.74.45a1.19,1.19,0,0,0,.42.87C32,34.17,32.21,33.86,32.35,33.37Z"/><path class="cls-4" d="M39.11,45.62c0-3.59.2-7.22-.17-10.78-.22-2.15.76-2,2-1.69,3.38.76,6.74,1.62,10.1,2.45l0,.14c0,.33,0,.65,0,1,0,1.81.13,3.64,0,5.44-.19,2.2,1,4.59-.79,6.59C46.46,48,42.61,47.45,39.11,45.62Z"/><path class="cls-5" d="M12.87,31.5c2.55.53,5.1,1,7.65,1.6,4.85,1.07,5.33,1.71,5.23,6.87,0,.87-.15,1.74-.23,2.6L12,39Z"/><path class="cls-3" d="M50.26,48.75c1.78-2,.6-4.39.79-6.59.15-1.8,0-3.63,0-5.44l.83-.6c1.59-.16,2.56-2.32,4.48-1.37-1,3.35-2.45,6.54-2.88,10-1.78,1.15-.63,3.31-1.65,4.72C51.2,49.52,50.51,49.59,50.26,48.75Z"/><path class="cls-5" d="M50.31,80.06c.06,1,0,1.78-1.41,1.36C43.26,79.69,37.61,78,32.08,75.78c4.77.4,9.12,2.77,13.92,3A5.78,5.78,0,0,1,50.31,80.06Z"/><path class="cls-5" d="M20.33,71.32c-.09,1.43-.89,1.5-2,1.14-3.85-1.23-7.74-2.32-11.54-3.65-1.58-.55-.84-1.11.29-1.35A60.87,60.87,0,0,1,20.33,71.32Z"/><path class="cls-5" d="M51.76,52.05c1.39,3.25.27,6.67.69,10C50.25,58.84,51.44,55.42,51.76,52.05Z"/><path class="cls-5" d="M53.22,79.6c-.27.54-.63.72-1.12.25.08-3.34-.6-6.72.44-10C53.38,73.05,52.88,76.35,53.22,79.6Z"/><path class="cls-3" d="M72.18,27c.11-1,1.06-1,1.67-1.18,2-.53,3.78-3.41,5.72-1.7s-.67,8-3.31,9.29c-1.63.81-3.11,2.09-5.09,2-1.08-.63,0-1.23,0-1.85C71.21,31.39,73.32,29.46,72.18,27Z"/><path class="cls-3" d="M60.67,32.42c2-1.85,4.56-2.61,7.12-3.31-.4,3.32-2.36,6.28-2.24,9.72-2.18,1.42-4.1,3.41-7,3.17C59.05,38.76,61,35.84,60.67,32.42Z"/><path class="cls-6" d="M65.55,38.83c-.12-3.44,1.84-6.4,2.24-9.72L72.18,27c1.14,2.42-1,4.35-1,6.6,0,.62-1.09,1.22,0,1.85Z"/><path class="cls-6" d="M60.67,32.42c.29,3.42-1.62,6.34-2.15,9.58l.07-.07-.76.67a9.25,9.25,0,0,1-4.33,2.19c.43-3.5,1.93-6.69,2.88-10Z"/><path class="cls-5" d="M81.93,63c.57.12,1.63.23,1.63.38a5,5,0,0,1-3.45,5c-1.77.73-3.94,2-5-1.07Z"/><path class="cls-5" d="M58,77.26c1.41-.06,3-.1,2.62,1.95a3,3,0,0,1-3.89,2.45c-2-.51-.81-1.85-.28-2.89Z"/><path class="cls-3" d="M79.48,19.41c0-.49.1-1,.16-1.45.89,0,1,.64,1.18,1.3Z"/><path class="cls-3" d="M79.66,18c-.91-.16-1.54-.48-.82-1.53C79.63,16.71,80.07,17.13,79.66,18Z"/><path class="cls-5" d="M51.9,36.12l-.83.6c0-.33,0-.65,0-1Z"/><path class="cls-3" d="M57.83,42.6l.76-.67C58.9,42.79,58.22,42.53,57.83,42.6Z"/><path class="cls-2" d="M29.24,19.2a17.36,17.36,0,0,0,.82-7.93h3.08c0,.45,0,.9,0,1.35.19,0,.47,0,.55-.11.47-.67.29-1.1-.54-1.24a3.75,3.75,0,0,1,2.37-3.46c.76-.31,1.57-1.26,2.34-.65,1.21.94-.29,1.16-.6,1.76-.48.95.65,1.45,1.21,2C42,14.52,45.63,18,49.08,21.68c.65.68,3.28,1.44.75,3.11-1.14-1.45-1.95-3.35-4.31-3.08-1-2.77-3.5-4.19-5.61-5.94-1-1.18-1-3.21-2.91-3.72-1-.67-1.7-.53-2,.71a2,2,0,0,0-.36,1.83c-1.81,2.4-1.93,5.12-1.51,8l-.71,0c.22-3.12.43-6.25.7-10.07-2.69,2-1.07,4.71-2.31,6.42-.76.22-.65.85-.69,1.42l0-.06c-.82.24-.83.89-.79,1.56l0-.05-.8.8,0-.06C27.39,21.11,29.13,20.31,29.24,19.2Z"/><path class="cls-4" d="M45.52,21.71c2.36-.27,3.17,1.63,4.31,3.08l.32.87a26.88,26.88,0,0,1,.43,2.93c.07,2.27-.35,3.91-3.37,3-2.1-.61-4.26-1.44-6.56-.87-.45-1-1.54-.72-2.27-1.15l-.69-.4h0c-.28-.76-1-1.36-.78-2.3C43.34,27,44,26.61,45.52,21.71Z"/><path class="cls-2" d="M45,4.5l1.68.17c0,1.8-1.78.63-2.47,1.43-.4.47-1-.07-1-.53C43.07,4.12,44.26,4.68,45,4.5Z"/><path class="cls-2" d="M41.59,5.51a2.7,2.7,0,0,1,.41.91c0,.4-.29.73-.69.42a1.63,1.63,0,0,1-.37-1C40.93,5.82,41.3,5.68,41.59,5.51Z"/><path class="cls-5" d="M35.4,79.51H33.87C34.39,78.7,34.9,78.69,35.4,79.51Z"/><path class="cls-3" d="M45.52,21.71C44,26.61,43.34,27,36.9,26.89l0,.08c.29-.82-.32-.66-.75-.69H35l-.48-1.51c1.63-1.27.77-3,.82-4.54.4-2.63,3.46-2.55,4.56-4.46C42,17.52,44.49,18.94,45.52,21.71Z"/><path class="cls-2" d="M32.07,28.36a6.1,6.1,0,0,1-4.81-2.19,1.4,1.4,0,0,0,.48-1.57v0c2,.48,3.76-.33,5.62-.67l.21.8c-.71.85-1.19,1.67.26,2.28l0,0A2,2,0,0,1,32.07,28.36Z"/><path class="cls-3" d="M32.07,28.36A2,2,0,0,0,33.81,27c.73.5,1.53,1.35.84,2S32.82,29.11,32.07,28.36Z"/><path class="cls-1" d="M27.74,24.6a1.4,1.4,0,0,1-.48,1.57l-.86-.26-.06-.3a1,1,0,0,0-.11-.62Z"/><path class="cls-3" d="M30.14,30l-2.29-.14c.95-1,1.62-.46,2.27.17Z"/><path class="cls-3" d="M38.38,29.6c.73.43,1.82.15,2.27,1.15C39.71,30.72,38.7,30.84,38.38,29.6Z"/><path class="cls-3" d="M33.83,27c-1.45-.61-1-1.43-.26-2.28l-.06,0L34,26.32A5.86,5.86,0,0,0,33.83,27Z"/><path class="cls-3" d="M37.69,29.2l-.69.63-.27-.38,1-.26Z"/><path class="cls-2" d="M34,26.32l-.51-1.58,1,0L35,26.28Z"/><path class="cls-4" d="M36.17,26.28c.43,0,1-.13.75.69Z"/><path class="cls-2" d="M26.34,25.61l.06.3c-.38.13-.57,0-.47-.4A2,2,0,0,1,26.34,25.61Z"/><path class="cls-2" d="M10,17.25a1.39,1.39,0,0,1,1-1.75C11.35,16.45,10.51,16.75,10,17.25Z"/><path class="cls-3" d="M26.38,18.56a3.57,3.57,0,0,1-3.64,3,3.54,3.54,0,0,1-3.88-3.69c0-1.5,1.45-3.33,2.35-2.62C22.84,16.51,26.48,13.93,26.38,18.56Z"/><path class="cls-1" d="M33.36,24c-1.86.34-3.66,1.15-5.62.67.17-.77,1.18-1.2.89-2.16l0,.06c.53,0,.7-.37.8-.8l0,.05c.73-.28.85-.87.79-1.56l0,.06,1.39-.21c.31.81-.35,2,.91,2.44l.71,0A1.23,1.23,0,0,1,33.36,24Z"/><path class="cls-5" d="M35.3,38.06c.05,1,.73,2.46-1,2.39C33,40.4,31.16,40.31,31.66,38Z"/><path class="cls-1" d="M31.64,36.52c.32-1.7,1.29-1.72,3.68-.05Z"/><path class="cls-5" d="M31.64,36.52l3.68-.05-.06,1.33-3.61-.1Z"/><path class="cls-1" d="M31.65,37.7l3.61.1,0,.26-3.64,0Z"/><path class="cls-5" d="M32.35,33.37c-.14.49-.36.8-.74.52a1.19,1.19,0,0,1-.42-.87c0-.16.47-.3.74-.45Z"/><path class="cls-4" d="M39.91,15.77c-1.1,1.91-4.16,1.83-4.56,4.46-2.07-1.64,0-3.82-.73-5.64A2,2,0,0,1,35,12.76a1.85,1.85,0,0,0,2-.71C38.9,12.56,38.86,14.59,39.91,15.77Z"/><path class="cls-5" d="M34.62,14.59c.72,1.82-1.34,4,.73,5.64-.05,1.55.81,3.27-.82,4.54l-1,0,.06,0-.21-.8a1.23,1.23,0,0,0-.25-1.42C32.69,19.71,32.81,17,34.62,14.59Z"/><path class="cls-3" d="M32.4,22.51c-1.26-.46-.6-1.63-.91-2.44a.93.93,0,0,0-.7-1.21c1.24-1.71-.38-4.39,2.31-6.42C32.83,16.26,32.62,19.39,32.4,22.51Z"/><path class="cls-5" d="M30.79,18.86a.93.93,0,0,1,.7,1.21l-1.39.21C30.14,19.71,30,19.08,30.79,18.86Z"/><path class="cls-5" d="M37,12.05a1.85,1.85,0,0,1-2,.71C35.3,11.52,36,11.38,37,12.05Z"/><path class="cls-5" d="M30.15,20.22c.06.69-.06,1.28-.79,1.56C29.32,21.11,29.33,20.46,30.15,20.22Z"/><path class="cls-5" d="M33.14,11.27c.83.14,1,.57.54,1.24-.08.12-.36.08-.55.11,0-.45,0-.9,0-1.35Z"/><path class="cls-5" d="M29.4,21.73c-.1.43-.27.8-.8.8C28.86,22.26,29.13,22,29.4,21.73Z"/></g></g></svg>