<svg xmlns="http://www.w3.org/2000/svg" viewBox="0 0 108.99 123.65"><defs><style>.cls-1{fill:#1a2125;}.cls-2{fill:#f5b60f;}.cls-3{fill:#9192a2;}.cls-4{fill:#42484f;}.cls-5{fill:#686868;}.cls-6{fill:#fbfbfb;}</style></defs><title>Element 3</title><g id="Ebene_2" data-name="Ebene 2"><g id="Ebene_1-2" data-name="Ebene 1"><path class="cls-1" d="M28.57,123.65c-7.43-3.58-15-7-22.26-10.81-6-3.18-7.44-6.35-5.5-12.64A97.33,97.33,0,0,1,11,78.67a4.83,4.83,0,0,1,4.08-2.46c3.82,3.42,13.94,3.12,17.33-.51,2.5.31,3.15,2.57,4.43,4.18-4.83-1-9.45.84-14.2,1-1,0-2.45.35-2.62,1.79-.14,1.1.76,1.79,1.57,2.33,2.81,1.89,13.94-.68,15.95-3.64l2.05-.53c.83,1.54,3.06,2.4,2.33,4.71-4.39.68-8.79,1.35-13.18,2-1.67.27-4.2-.25-3.75,2.59a3.75,3.75,0,0,0,4.63,3.41C33,93,36.41,92.08,39.84,91.85c3.1-.21,4.07-1.56,3.74-4.37a3.46,3.46,0,0,1,2.33,2.06c-1.08,1.67,1.37,2.72.76,4.31-4.38.6-8.77,1.22-13.15,1.81-1.59.22-3.88,0-3.52,2.32.27,1.77,1.08,4.75,3.24,4.41,5.53-.88,11.5-.33,16.41-3.93L52,99.83c.38,1,.75,2,1.12,3-5.11-1-9.74,1.49-14.64,2.11-1.46.18-4.66.06-3.46,3.38.81,2.24,1.36,4.86,5.09,3.45a61.24,61.24,0,0,1,9.64-2.3,5.83,5.83,0,0,0,4.67-3.79c.73,2.63,1.25,5.26.06,7.9-1-.52-1.25-2.16-2.72-1.79-4.47,1.12-9.15,1.82-13.3,3.66-2.29,1-4.6,3.79-1.93,7-.67.34-1.71,0-2,1.13ZM6.42,105.57c-.73.4-.64.79,0,1.2l1,1.1a3.87,3.87,0,0,0,.12.68,2,2,0,0,0,2.44,1.21l.29,0c1.38,1,1.75-.18,2.25-1.07v-1.15l1-1.1c5.12-.77,2-5,2.69-7.41.53-1.77-1.34-4.64-4.54-4.46-2.29-.27-3.76.56-4.1,3s-.69,4.76-1,7.14a3.48,3.48,0,0,0,0,.79Zm25,2.2c-1-1.4-1.19-4-3.94-2.33-1,.62-2.23,1-2.85,1.91a6.36,6.36,0,0,0-.2,7.43c1.26,1.86,3.5,2.48,5.23,0,4-.39,3.33-2.61,2-5.08ZM17.61,86.52c-.27-1.67,0-4.53-2.79-4.55s-3,2.72-3.06,4.84.71,4,3.33,4S17.6,88.75,17.61,86.52Zm1.81,10.6c.23,1.36-.23,3.5,2.28,3.39,2.11-.09,2.65-1.94,2.46-3.62-.17-1.52-.12-3.88-2.11-4C19.6,92.75,19.72,95.15,19.42,97.12Z"/><path class="cls-2" d="M46.67,93.85c.61-1.59-1.84-2.64-.77-4.31,1.68.16,2.46,1.56,3.56,2.53,1.39,1.21,2.17,2.54,4.91,2.06,3.58-.62.44-3.47,2.69-4.56.94,2.17,2.34,3,4.71,1.61,2.7-1.53,1.81-3.42,1.33-5.5-.64-2.83-1.19-5.6-.58-8.6.49-2.45-.06-4.81-3.57-4.39-2.46-1.14-5.48-.16-7.73-2-.56-2.84-2.91-1.7-4.58-2,1-2,2.82-1.15,4.31-1.25,5.18-.33,10.38-.54,15.57-.8h8.21c0,1.79-.06,3.58,0,5.36.26,4.26-1.24,8.62.79,12.77l0,0c0,.9.62.91,1.27.88,3.19-1.69,5,1.7,7.59,2.1,3,6.68,1.94,8.53-4.77,9.05-7.74.59-15.46,1.4-23.19,2.11-1.68-.53-2.89,1-4.45,1l-2.34-1.37C49.79,96.19,47.51,95.48,46.67,93.85Z"/><path class="cls-2" d="M36.85,79.88c-1.28-1.61-1.93-3.87-4.43-4.18-4.59-1.36-9.34,1-13.92-.62-.39-.91-1.19-1.86-1.09-2.71.39-3.26-.65-4.41-4.13-4.88C8.26,66.81,8,65.7,11,61.38c.67-1,.13-1.46-.22-2.14-.78-1.52,0-3.15,1.16-3.31,6.44-.91,12-4.87,18.94-4.6,3.92.15,8.43,0,12.38-1.79a4.5,4.5,0,0,0,2.31,2.37c-2.21,3.76-.39,7.87-1,11.77l-2.92,0c-.71-1-1.54-1.34-2.61-.42a3,3,0,0,0,2.65.36c.45,1.6,2,.83,3,1.44v.13l-.33,1.08c-.13.73-.26,1.46-.4,2.19h0v0c0-1-.77-1.38-1.37-1.92-1.54-2-4.26-1.94-6.06-3.49l-2.5.75c-1-3.5-3.76-2.87-6.32-2.76l-1.45-1.38c.17-.58-.07-.78-.6-.6-.08,0,0,.45,0,.69l.09,0c-2.11-.18-4.82-1.57-5.52,1.79-.58,2.85-1.61,6.2,2.54,7.6,2.42,3.31,6.14,3.1,9.61,3.54a6.18,6.18,0,0,0,3.8-.25l1.93,1c1.65,1.41,2.93,2.9,5.71,1.47,2.12-1.09.39,1.43,1,2l-.35,1.8c-2-.24-2.89,2-4.73,2.24l-2.05.53Z"/><path class="cls-1" d="M56.44,98.79c7.73-.71,15.45-1.52,23.19-2.11,6.71-.52,7.75-2.37,4.77-9.05l4.11-4.12c2.38,2.92,6.58,2.77,11.16-.39l2,2.33c-2.64,2.37-6.23,1.56-9.19,2.78-1.2.49-3.75-.33-3.39,1.76s1.73,4,4.5,3.63c2.92-.39,5.85-.72,8.77-1.18,1.83-.29,2.17-1.78,2.32-3.33,3.59,4.32,6,8.87,2.72,14.48-.62-.51-1.3-1.52-1.85-1.46a76.26,76.26,0,0,0-12.1,1.92c-2.15.6-4.72,2.2-3,5.49-1.79.22-3.74,1-5.35.57C75.21,107.36,65.48,103.93,56.44,98.79Zm40.2,2.79c2.46-.53,5.68-1.31,8.94-1.9,2.15-.39,2.07-1.89,1.91-3.39a2.4,2.4,0,0,0-3.1-2.35c-3.1.52-6.18,1.21-9.29,1.57-2.71.32-2.54,2.08-2.45,4C92.75,101.65,94.25,101.68,96.64,101.58Zm-9.4-7.29c-1,1.28-.61,3.52-3,3.35s-3.08,1.4-2.62,3.5,1.71,3.6,4,3.52,3-1.76,3-3.74S89,96.64,87.24,94.29Z"/><path class="cls-3" d="M57.55,26.64c1.32,2.89,2.4,5.66,5.35,7.74,3.85,2.73,3.16,6.24-1.12,8.29-3,1.42-5.31,3.17-6.06,6.53-3.7-1.08-7.67,1.47-11.28-.83l3.17-3.75c2.18.6,4.91-.18,4.6-2a20,20,0,0,1,.31-7.92c1.72-2.43-1.21-4-1.16-6.09.18-.28.36-.57.55-.85.88-.15,1.75-.48,1.36-1.55a1.67,1.67,0,0,0-2.38-1.07c-2.24,1-4.57.54-6.87.56-3.38-.43-5.31-2.28-5.59-6s-1.62-8.4,4.07-9.92l3-1a15.19,15.19,0,0,1,0,2.94c-1.38,6.68,1,9.81,7.67,10,1.23,0,2.72-.64,3.54,1C54.12,24.56,54.43,25.9,57.55,26.64Z"/><path class="cls-2" d="M42.5,9.69c-5.69,1.52-4.37,6-4.07,9.92s2.21,5.61,5.59,6c1.75,2.3,4.82-.19,6.64,1.82-1.74.88-4.68-1.21-5.41,2.18-2.94-.51-5.33,2.75-8.42,1.23-8.4-2-11.08-5-11.94-13.3C28.83,8.77,37.07,6.65,45.28,4.5c1.13.17,2.48,2.07,3.28-.41l4,0,0,.12-2.5,1.48L46.43,7.39l-1,.41C43.2,6.49,41.9,6.61,42.5,9.69Z"/><path class="cls-1" d="M44.44,48.37c3.61,2.3,7.58-.25,11.28.83,8.76,0,17.53,0,26.29.17,1.46,0,3.41-.95,4.3,1.26l-.74,1-6.16-.1a3.35,3.35,0,0,0-3,2.17c-3-.25-4.34,1-3.71,4,.54,2.55-1.82,6.79,3.68,6.6l-1.68,2.21H66.52a3.71,3.71,0,0,0,0-.88c.41-9.29.41-9.29-6.85-8.76l-6.84-2.35c-1-4.79-4.65-2.42-7.33-2.64a4.5,4.5,0,0,1-2.31-2.37Z"/><path class="cls-3" d="M88.51,83.51,84.4,87.63c-2.61-.4-4.4-3.79-7.59-2.1l-1.27-.88,0,0c.22-5.87.21-11.76,1.48-18.49,1.71,2.51,2.9,4.58,5.52,4.45.34.92,1.16,1.14,2,1.35-.07,2.44-2.74,4.25-1.55,7.29A16.64,16.64,0,0,0,85.58,72c2,.06,4,1.29,6.07.57,2-.24,3.15.85,4.07,2.39,0,1.25-.11,2.49-.16,3.74-3.67-1.55-4.73,1.22-6,3.62l-1,1.38Z"/><path class="cls-4" d="M36.83,30.88c3.09,1.52,5.48-1.74,8.41-1.23l.26,0,.2.2-2.4,1.58c1.63.12,2.9.95,4.29.26l0,0c-.52.4-.52.79,0,1.19,1.69,2.23,2.25,4.15-1.35,4.92a55.66,55.66,0,0,0-13.79.9c-6.36,1.28-12-2.56-12-7.41,0-1.93.43-3.54,2.17-4.6,2.18.62,2.24,2.65,2.79,4.3.76,2.26,3.84,4.16,4.39,3.42C31.67,31.78,36.58,35.91,36.83,30.88Z"/><path class="cls-3" d="M86.39,18.56c-2.44,1.89-.84,6.62-4.4,7.3-5.42,1-10.6,4.87-16.5,2,3-1.12,7.09,2,9.13-2.5-2.26-1.63-5.79-1.86-6.2-5.56,6.11,1,9-.32,10.55-4.4,1.5-3.92-1.39-6.05-3.2-8.65,2.79-.11,4.9,2.64,7.86,1.84h0c-1,3.38,2.42,6.55.46,10Z"/><path class="cls-4" d="M54.41,105.71a5.83,5.83,0,0,1-4.67,3.79,61.24,61.24,0,0,0-9.64,2.3c-3.73,1.41-4.28-1.21-5.09-3.45-1.2-3.32,2-3.2,3.46-3.38,4.9-.62,9.53-3.15,14.64-2.11A4.08,4.08,0,0,1,54.41,105.71Z"/><path class="cls-4" d="M36.52,122.52c-2.67-3.25-.36-6,1.93-7,4.15-1.84,8.83-2.54,13.3-3.66,1.47-.37,1.76,1.27,2.72,1.79-1.36,4.4-5.23,5.35-8.95,6.45C42.54,121,39.52,121.7,36.52,122.52Z"/><path class="cls-2" d="M68.42,19.79c.41,3.7,3.94,3.93,6.2,5.56-4.56,1.93-9.25,1.5-14,.84l-1.71-.41c-.2-.34-.4-.68-.59-1l-.24-2c-.92-2.86,3.42-4.32,2-7.33,1.62,0,3.26-.21,3.83,2a3,3,0,0,0,3.33,2.23l1.3.12Z"/><path class="cls-3" d="M36.83,30.88c-.25,5-5.16.9-7.09,3.47-.55.74-3.63-1.16-4.39-3.42-.55-1.65-.61-3.68-2.79-4.3a40.87,40.87,0,0,0-.27-5.87c-.43-2.31.71-3,2.6-3.18C25.75,25.85,28.43,28.84,36.83,30.88Z"/><path class="cls-4" d="M104.72,89.11c-.15,1.55-.49,3-2.32,3.33-2.92.46-5.85.79-8.77,1.18C90.86,94,89.46,92,89.13,90s2.19-1.27,3.39-1.76c3-1.22,6.55-.41,9.19-2.78A8.39,8.39,0,0,1,104.72,89.11Z"/><path class="cls-5" d="M84.55,72c-.82-.21-1.64-.43-2-1.35-1.52-2.46-2.8-4.85,1.58-5.72.17,0,.18-.9.26-1.38l.12.06,1-1-.08-.09L87.14,61l2.5,2.41c-1.17,3.45,3.43,5.63,2,9.14-2.1.72-4-.51-6.07-.57Z"/><path class="cls-4" d="M90.53,109.54c-1.76-3.29.81-4.89,3-5.49a76.26,76.26,0,0,1,12.1-1.92c.55-.06,1.23,1,1.85,1.46a3.56,3.56,0,0,1-3,2.82C99.57,106.64,95.3,109.18,90.53,109.54Z"/><path class="cls-4" d="M89.55,82.27c1.28-2.4,2.34-5.17,6-3.62l4.11,4.47c-4.58,3.16-8.78,3.31-11.16.39v.14Z"/><path class="cls-4" d="M83.63,8.58c-3,.8-5.07-1.95-7.86-1.85L72.63,5.68c-2.21-2.21-5.22-2.2-8-2.9l0-2C71.63,1.73,78.18,3.83,83.63,8.58Z"/><path class="cls-1" d="M46.2,37.74c3.6-.77,3-2.69,1.35-4.92a1.24,1.24,0,0,0,1.12-1.18c2,.11,1.93,2.82,3.85,3a20,20,0,0,0-.31,7.92c.31,1.87-2.42,2.65-4.6,2C49.66,41.81,49.17,39.52,46.2,37.74Z"/><path class="cls-4" d="M18.5,75.08c4.58,1.6,9.33-.74,13.92.62-3.39,3.63-13.51,3.93-17.33.51Z"/><path class="cls-4" d="M55.31,1.3a8.88,8.88,0,0,1,8-.63,6.44,6.44,0,0,0,.26,7c0,1,0,2,0,3l-2.47.86c-1.76-3.34.93-9.18-5.56-9.86Z"/><path class="cls-4" d="M91.65,72.52c1.42-3.51-3.18-5.69-2-9.14,3.41,2.53,4,7,6.76,10,.52.54-.05,1.21-.68,1.57C94.8,73.37,93.62,72.28,91.65,72.52Z"/><path class="cls-4" d="M86.39,18.56H84.1c2-3.42-1.45-6.59-.46-10C86.45,11.39,86.88,14.85,86.39,18.56Z"/><path class="cls-4" d="M60.65,26.19c4.72.66,9.41,1.09,14-.84-2,4.5-6.16,1.38-9.13,2.5C63.74,27.7,61.7,28.38,60.65,26.19Z"/><path class="cls-4" d="M87.14,61l-1.69,1.55.12-10.85.74-1C86.58,54.08,86.86,57.52,87.14,61Z"/><path class="cls-4" d="M52.56,4.06l-4,0-.92-1.23c2.54-.58,5-1.81,7.66-1.56l.26.36C55.38,3.48,52.87,2.39,52.56,4.06Z"/><path class="cls-5" d="M63.56,7.67a6.44,6.44,0,0,1-.26-7l1.32.09,0,2C64.29,4.41,63.92,6,63.56,7.67Z"/><path class="cls-4" d="M58.11,22.77l.24,2c-.59.16-.85.48-.54,1.08a1.52,1.52,0,0,1-.26.8c-3.12-.74-3.43-2.08-.85-4Z"/><path class="cls-5" d="M47.65,2.86l.92,1.23c-.81,2.48-2.16.58-3.29.41A2.15,2.15,0,0,1,47.65,2.86Z"/><path class="cls-3" d="M57.81,25.84c-.31-.6-.05-.92.54-1.08.19.34.39.68.59,1Z"/><path class="cls-3" d="M39.6,80.85c1.84-.19,2.68-2.48,4.73-2.24.94,1.83,2.51,2.62,4.34,1.83,1.57-.68,2.74-.2,4,.44a11.36,11.36,0,0,0,2.88,7.28c-.65-2.55-1-5.23-2.8-7.34.42-2,2-3,3.75-3.55,2.54-.75,2.65-2.52,2.45-4.58,3.5-.42,4,1.94,3.56,4.39-.61,3-.06,5.77.58,8.6.48,2.08,1.37,4-1.33,5.5-2.37,1.34-3.77.56-4.71-1.61-2.25,1.09.89,3.94-2.69,4.56-2.74.48-3.52-.85-4.91-2.06-1.1-1-1.88-2.37-3.56-2.53a3.42,3.42,0,0,0-2.32-2.06l-1.65-1.92C42.66,83.25,40.43,82.39,39.6,80.85Z"/><path class="cls-4" d="M46.67,93.85c.84,1.63,3.12,2.34,3,4.61-4.91,3.6-10.88,3.05-16.41,3.93-2.16.34-3-2.64-3.24-4.41-.36-2.34,1.93-2.1,3.52-2.32C37.9,95.07,42.29,94.45,46.67,93.85Z"/><path class="cls-4" d="M41.93,85.56l1.65,1.92c.33,2.81-.64,4.16-3.74,4.37-3.43.23-6.8,1.19-10.21,1.76A3.75,3.75,0,0,1,25,90.2c-.45-2.84,2.08-2.32,3.75-2.59C33.14,86.91,37.54,86.24,41.93,85.56Z"/><path class="cls-4" d="M36.85,79.88l.7,1.5c-2,3-13.14,5.53-15.95,3.64-.81-.54-1.71-1.23-1.57-2.33.17-1.44,1.61-1.75,2.62-1.79C27.4,80.72,32,78.85,36.85,79.88Z"/><path class="cls-5" d="M13.45,106.48c-.33.36-.65.73-1,1.1l-5.11.29-1-1.11c0-.39,0-.79,0-1.19l0,0,.65-.37-.64-.42q.52-3.57,1-7.14c.34-2.42,1.81-3.25,4.1-3C14.55,98.2,13.37,102.44,13.45,106.48Z"/><path class="cls-5" d="M29.66,114.74c-1.73,2.52-4,1.9-5.23,0a6.36,6.36,0,0,1,.2-7.43c.62-.87,1.88-1.29,2.85-1.91,1.11,1.13,2,2.57,3.94,2.33.07.63.13,1.26.2,1.89C28.36,110.35,30,112.91,29.66,114.74Z"/><path class="cls-5" d="M17.61,86.52c0,2.23.12,4.27-2.52,4.31s-3.34-2-3.33-4S12.19,82,14.82,82,17.34,84.85,17.61,86.52Z"/><path class="cls-5" d="M19.42,97.12c.3-2,.18-4.37,2.63-4.23,2,.12,1.94,2.48,2.11,4,.19,1.68-.35,3.53-2.46,3.62C19.19,100.62,19.65,98.48,19.42,97.12Z"/><path class="cls-4" d="M13.45,106.48c-.08-4,1.1-8.28-1.85-11.87,3.2-.18,5.07,2.69,4.54,4.46C15.41,101.49,18.57,105.71,13.45,106.48Z"/><path class="cls-4" d="M29.66,114.74c.3-1.83-1.3-4.39,2-5.08C33,112.13,33.7,114.35,29.66,114.74Z"/><path class="cls-4" d="M31.42,107.77c-1.91.24-2.83-1.2-3.94-2.33C30.23,103.79,30.47,106.37,31.42,107.77Z"/><path class="cls-4" d="M7.36,107.87l5.11-.29c0,.38,0,.77,0,1.15a2.68,2.68,0,0,0-2.25,1.07l-.29,0-2.44-1.22A3.87,3.87,0,0,1,7.36,107.87Z"/><path class="cls-5" d="M10.21,109.8a2.68,2.68,0,0,1,2.25-1.07C12,109.62,11.59,110.78,10.21,109.8Z"/><path class="cls-5" d="M7.48,108.55l2.44,1.22A2.06,2.06,0,0,1,7.48,108.55Z"/><path class="cls-4" d="M6.46,104.73l.64.42-.65.37A3.48,3.48,0,0,1,6.46,104.73Z"/><path class="cls-4" d="M6.42,105.57c0,.4,0,.8,0,1.19C5.78,106.36,5.69,106,6.42,105.57Z"/><path class="cls-5" d="M52.68,80.89a4.26,4.26,0,0,0-4-.45c-1.83.79-3.4,0-4.34-1.83.11-.6.23-1.2.35-1.8,2.72,0,3.19-1.3,1.87-3.51l.6-3.26c1.44-.35,2.85-.54,4.07.6,2.25,1.89,5.27.91,7.73,2,.21,2.06.1,3.83-2.44,4.58-1.73.51-3.33,1.5-3.75,3.55Z"/><path class="cls-4" d="M84.41,63.54c-.08.48-.09,1.35-.26,1.38-4.38.87-3.1,3.26-1.58,5.72-2.62.13-3.81-1.94-5.52-4.45-1.27,6.73-1.26,12.62-1.48,18.49-2-4.15-.53-8.51-.79-12.77-.11-1.78,0-3.57,0-5.36l1.68-2.21c1.64-1.26.78-3.13,1.13-4.7a3.36,3.36,0,0,0,0-1c-.5-1.62.64-3.61-1.11-4.95a3.35,3.35,0,0,1,3-2.17,54.85,54.85,0,0,1,.06,7.36C79,63,80.7,64.22,84.41,63.54Z"/><path class="cls-4" d="M52.87,54.55,59.7,56.9c.34,2.69-1.25,3.82-3.52,4.5a1.84,1.84,0,0,0-1.44,2.27,2.38,2.38,0,0,0,.82,1.1c3.87-2.06,7.2,2.47,11,.89a3.71,3.71,0,0,1,0,.88c-5.19.26-10.39.47-15.57.8-1.49.1-3.35-.78-4.31,1.25-.23.29-.45.59-.67.88l-2.12-1c.14-.73.27-1.46.4-2.19l1.54.05c7.23.79,7.2.79,6.93-6.36C52.65,58.14,52.81,56.34,52.87,54.55Z"/><path class="cls-4" d="M51.22,70.64c-1.22-1.14-2.63-1-4.07-.6L46,69.48c.22-.3.44-.6.67-.89C48.31,68.94,50.66,67.8,51.22,70.64Z"/><path class="cls-4" d="M75.54,84.65l1.27.88C76.16,85.56,75.55,85.55,75.54,84.65Z"/><path class="cls-3" d="M52.87,54.55c-.06,1.79-.22,3.59-.15,5.38.27,7.15.3,7.15-6.93,6.37l-1.21-1.14V65l-.09-1.35c.65-3.9-1.17-8,1-11.77C48.22,52.13,51.83,49.76,52.87,54.55Z"/><path class="cls-1" d="M46.55,73.3c1.32,2.21.85,3.46-1.87,3.51-.61-.61,1.12-3.13-1-2C40.9,76.2,39.62,74.71,38,73.3c2.08-3.83-1.67-6.79-1.56-10.32,1.8,1.55,4.52,1.51,6.06,3.5-.26,1.15-.5,2.29,1.37,1.91v0C45.21,69.79,42.06,73.66,46.55,73.3Z"/><path class="cls-1" d="M22.63,69c-4.15-1.41-3.12-4.76-2.54-7.61.7-3.36,3.41-2,5.52-1.79-1.58,3.23,1.2,5.91,1.1,8.95Z"/><path class="cls-1" d="M27.59,61c2.56-.11,5.34-.74,6.33,2.75Q35,68,36,72.31a6.15,6.15,0,0,1-3.79.25c.41-1.37-.54-2.1-1.38-2.88C30.53,66.49,29,63.77,27.59,61Z"/><path class="cls-3" d="M27.59,61c1.36,2.8,2.94,5.52,3.28,8.71a4.93,4.93,0,0,1-3.46-.31l-.81-.77.11,0c.1-3-2.68-5.72-1.1-8.95l-.09,0,.62-.09Z"/><path class="cls-6" d="M36,72.31Q35,68,33.92,63.72L36.41,63C36.3,66.51,40.05,69.47,38,73.3Z"/><path class="cls-4" d="M27.41,69.37a4.93,4.93,0,0,0,3.46.31c.84.78,1.79,1.51,1.38,2.88-3.48-.44-7.2-.23-9.62-3.54l4.08-.44-.11,0Z"/><path class="cls-3" d="M46.55,73.3c-4.49.36-1.34-3.51-2.7-4.88h0l2.12,1,1.18.57Z"/><path class="cls-1" d="M44.5,63.68,44.59,65c-.93-.61-2.52.16-3-1.44l0,.06Z"/><path class="cls-1" d="M41.62,63.59A3,3,0,0,1,39,63.23c1.07-.92,1.9-.62,2.61.42Z"/><path class="cls-5" d="M43.84,68.39c-1.87.38-1.63-.76-1.37-1.91C43.07,67,43.89,67.39,43.84,68.39Z"/><path class="cls-5" d="M44.58,65.16l1.21,1.14-1.54-.06Z"/><path class="cls-1" d="M26.14,59.59l-.62.09c0-.24-.06-.66,0-.69C26.07,58.81,26.31,59,26.14,59.59Z"/><path class="cls-4" d="M96.64,101.58c-2.39.1-3.89.07-4-2.1-.09-1.89-.26-3.65,2.45-4,3.11-.36,6.19-1.05,9.29-1.57a2.4,2.4,0,0,1,3.1,2.35c.16,1.5.24,3-1.91,3.39C102.32,100.27,99.1,101.05,96.64,101.58Z"/><path class="cls-5" d="M87.24,94.29c1.78,2.35,1.45,4.53,1.42,6.63s-.66,3.67-3,3.74-3.58-1.38-4-3.52.08-3.68,2.62-3.5S86.24,95.57,87.24,94.29Z"/><path class="cls-1" d="M58.11,22.77l-1.41-.15c-.82-1.62-2.31-.94-3.54-1-6.65-.18-9-3.31-7.67-10a15.19,15.19,0,0,0,0-2.94,1.42,1.42,0,0,0-.07-.91l1-.41c5.56.08,10.93.53,13,7l.61,1C61.53,18.45,57.19,19.91,58.11,22.77Z"/><path class="cls-4" d="M52.52,34.65c-1.92-.19-1.87-2.9-3.85-3H47.55l0,0c.85-.73-.06-1.27-.19-1.9l4-1.21C51.31,30.67,54.24,32.22,52.52,34.65Z"/><path class="cls-4" d="M50.66,27.47c-1.82-2-4.89.48-6.64-1.82,2.3,0,4.63.46,6.87-.56a1.67,1.67,0,0,1,2.38,1.07c.39,1.07-.48,1.4-1.36,1.55Z"/><path class="cls-1" d="M50.66,27.47l1.25.24c-.19.28-.37.57-.55.85l-4,1.21-1.7.06-.2-.2-.26,0C46,26.26,48.92,28.35,50.66,27.47Z"/><path class="cls-5" d="M45.43,7.8a1.42,1.42,0,0,1,.07.91l-3,1C41.9,6.61,43.2,6.49,45.43,7.8Z"/><path class="cls-3" d="M59.46,14.42c-2.1-6.5-7.47-6.95-13-7l3.65-1.73c1.17.07,2.17-.13,2.5-1.48l0-.12c.31-1.67,2.82-.58,3-2.4,6.49.68,3.8,6.52,5.56,9.86C59.38,11.8,59.47,13.14,59.46,14.42Z"/><path class="cls-5" d="M52.58,4.18c-.33,1.35-1.33,1.55-2.5,1.48Z"/><path class="cls-5" d="M66.56,65.66c-3.8,1.58-7.13-2.95-11-.89a2.38,2.38,0,0,1-.82-1.1,1.84,1.84,0,0,1,1.44-2.27c2.27-.68,3.86-1.81,3.52-4.5C67,56.37,67,56.37,66.56,65.66Z"/><path class="cls-3" d="M84.41,63.54c-3.71.68-5.44-.55-4.94-4.61a54.85,54.85,0,0,0-.06-7.36l6.16.1-.12,10.85.08.09c-.81-.15-1.12.2-1,1Z"/><path class="cls-2" d="M76.44,53.74c1.75,1.34.61,3.33,1.11,4.95-.71.32-1.71-.42-2.23.61l2.22.34c-.35,1.57.51,3.44-1.13,4.7-5.5.19-3.14-4.05-3.68-6.6C72.1,54.75,73.49,53.49,76.44,53.74Z"/><path class="cls-2" d="M84.55,72l1,0A16.64,16.64,0,0,1,83,79.28C81.81,76.24,84.48,74.43,84.55,72Z"/><path class="cls-1" d="M89.55,82.27l-1,1.38Z"/><path class="cls-6" d="M45.7,29.83l1.7-.06c.13.63,1,1.17.19,1.9-1.39.69-2.66-.14-4.29-.26Z"/><path class="cls-6" d="M47.55,31.63h1.12a1.24,1.24,0,0,1-1.12,1.18C47,32.42,47,32,47.55,31.63Z"/><path class="cls-1" d="M72.63,5.68l3.14,1.05c1.81,2.61,4.7,4.74,3.2,8.66-1.56,4.08-4.44,5.37-10.55,4.4l.12,0c-.22-1-1-1-1.81-1.13l-1.34-5.12C65.59,8.85,68.84,7,72.63,5.68Z"/><path class="cls-5" d="M65.39,13.51l1.34,5.12.51,1a3,3,0,0,1-3.33-2.23c-.57-2.18-2.21-2-3.83-2l-.62-1c0-1.28-.08-2.62,1.67-2.9l2.47-.86A3.63,3.63,0,0,0,65.39,13.51Z"/><path class="cls-3" d="M67.24,19.64l-.51-1c.78.1,1.59.13,1.81,1.13Z"/><path class="cls-4" d="M84.53,63.6c-.12-.79.19-1.14,1-1Z"/><path class="cls-3" d="M65.39,13.51a3.63,3.63,0,0,1-1.79-2.85c0-1,0-2,0-3,.36-1.63.73-3.26,1.09-4.89,2.76.7,5.77.69,8,2.9C68.84,7,65.59,8.85,65.39,13.51Z"/><path class="cls-2" d="M52.76,80.82c1.83,2.11,2.15,4.79,2.8,7.34a11.36,11.36,0,0,1-2.88-7.28Z"/><path class="cls-5" d="M77.54,59.64l-2.22-.34c.52-1,1.52-.29,2.23-.61A3.36,3.36,0,0,1,77.54,59.64Z"/><path class="cls-1" d="M27.41,69.37l-.81-.77Z"/></g></g></svg>