<svg xmlns="http://www.w3.org/2000/svg" width="978.508" height="194.854" xmlns:v="https://vecta.io/nano"><path d="M.172 147.933h146.487c15.098 0 27.452-12.354 27.452-27.451V44.299h-34.819v75.876h-34.271V44.299H70.203v75.876H35.932V44.299H.152v76.183l.02 27.451h0zm359.617-1.85v-74.95c0-15.098-12.354-27.451-27.451-27.451h-87.595c-15.098 0-27.452 12.353-27.452 27.451v74.949h37.939v-30.219h68.779v30.219h35.78 0zM255.23 93.889h68.779V67.204H255.23v26.685h0zm282.607 51.214h-95.049-36.353v-23.414-78.663h0 36.353v78.663h95.049zm164.632 0h-95.051-36.352v-23.414-78.663h0 36.352v78.663h95.051zm37.493-69.284a18.82 18.82 0 0 1 18.814 18.814 18.82 18.82 0 0 1-18.814 18.813c-10.391 0-18.814-8.423-18.814-18.813a18.82 18.82 0 0 1 18.814-18.814h0z" stroke-miterlimit="22.92560005" fill-rule="evenodd" stroke="#000" stroke-width=".307"/><path d="M881.081 0c53.801 0 97.427 43.627 97.427 97.425s-43.626 97.428-97.427 97.428-97.427-43.629-97.427-97.428S827.282 0 881.081 0h0zm64.307 45.471H836.841c-15.099 0-27.453 12.354-27.453 27.451v44.167c0 15.097 12.357 27.451 27.453 27.451h108.547v-23.774h-99.935v-16.338h92.162V83.467h-92.162V67.131h99.935V45.47h0z" fill="#ed1c24" fill-rule="evenodd"/></svg>