<svg xmlns="http://www.w3.org/2000/svg" viewBox="0 0 88.79 86.37" xmlns:v="https://vecta.io/nano"><style><![CDATA[.G{fill:#121819}.H{fill:#414548}.I{fill:#fcab00}.J{fill:#9494a5}.K{fill:#fbba10}]]></style><path d="M3.88 65.84c-.77-8.05-1.55-16.11-1.61-24.21.39-1.81-1.74-5.35 2.9-4.25L12 39l13.55 3.61 10.53 2.7c1 .74 2 .47 3.06.35 3.5 1.83 7.35 2.37 11.15 3.13.25.84.94.77 1.59.76l-.09 2.54c-.32 3.37-1.51 6.79.69 10l.09 7.8c-1 3.3-.36 6.68-.44 10a1.78 1.78 0 0 0-1.79.21A5.78 5.78 0 0 0 46 78.74c-4.83-3-10.52-3.5-15.77-5.26-2.42-.81-4.84-2.18-7.59-1.4l-1.5-.74h-.81a60.87 60.87 0 0 0-13.28-3.88c-.53-1.4-1.58-.85-2.52-.67h.06c.11-.54-.21-.79-.71-.95z" class="K"/><path d="M52.54 69.83L52.45 62c-.42-3.31.7-6.73-.69-10l.09-2.54c1-1.41-.13-3.57 1.65-4.72a9.25 9.25 0 0 0 4.33-2.19c.39-.07 1.07.19.76-.67l-.07.07c2.93.24 4.85-1.75 7-3.17l5.62-3.34c2 0 3.46-1.23 5.09-2 2.64-1.31 5.15-7.69 3.31-9.29s-3.74 1.17-5.72 1.7c-.61.16-1.56.18-1.67 1.18l-4.39 2.07c-2.56.7-5.09 1.46-7.12 3.31l-4.29 2.33c-1.92-1-2.89 1.21-4.48 1.37l-.82-.38v-.14c.18-1.71 1.68-2.68 2.29-4.15 5.24-2 10.63-3.72 14.94-7.57 4.31-.07 7.6-2.69 11.22-4.47l1.34-.15c-.14-.66-.29-1.32-1.18-1.3h0c.41-.87 0-1.29-.82-1.53v.06c-.68-1.11-1.74-2.27.39-3 1.62 1.49 3.9 1.19 5.76 2.1 2.3 1.11 3.61 2.53 2.74 5.2a24.73 24.73 0 0 1-4.08 2.44c-1.77.68-3 1.77-2.39 3.53.75 2 2.65.91 3.76.3 2-1.12 2.61.17 2.42 1.51-.92 6.46 0 12.91-.18 19.35-.1 4.13 1.25 8.44-.93 12.43-1.67.56-3.36 1.08-4.45 2.62l-6.86 4.33c-6.28 2.27-11.44 6.53-17.02 9.97l-1.54 1.51c-1.25-.41-2.1.68-3.19.83-.39-3.25.11-6.55-.73-9.77z" class="I"/><path d="M68.26 23.88c-4.31 3.85-9.7 5.57-14.94 7.57-.71-2.12.61-5.35-3.17-5.79l-.32-.87c2.53-1.67-.1-2.43-.75-3.11C45.63 18 42 14.52 38.46 10.94c-.56-.57-1.69-1.07-1.21-2 .31-.6 1.81-.82.6-1.76-.77-.61-1.58.34-2.34.65a3.75 3.75 0 0 0-2.37 3.46h-3.08a1.82 1.82 0 0 1-.4 0c0-.26-.05-.53-.07-.79 2.9 0 1.8-2.18 2-3.64l.77-.06c.37.4.54.25.59-.22a5.7 5.7 0 0 1 3.77-1.48c1.55 1 2 0 2.39-1.29l1.4-.18c1.4.5 2.6.5 3.07-1.26l.84.12a1.65 1.65 0 0 1 .52 2c-.71.18-1.9-.38-1.79 1.07 0 .46.6 1 1 .53.69-.8 2.44.37 2.47-1.43l4-.92 2.77 2.51c0 1.7 1 2.38 2.49 2.71l7.81 7.26c2.19 1.99 5.39 3.72 4.57 7.66zM41.59 5.51c-.29.17-.66.31-.65.38a1.63 1.63 0 0 0 .37 1c.4.31.71 0 .69-.42a2.7 2.7 0 0 0-.41-.96z" class="K"/><path d="M81.93 63c1.09-1.54 2.78-2.06 4.44-2.62a8.72 8.72 0 0 1-4 8.33c-4.88 3.32-10 6.22-14.91 9.54-1.51 1-4 1.1-4.22 3.68l-.16-.18.15.18c-3.13-.45-5.13 2.41-8.05 2.4.16 1.43 1.59.92 1.85 1.83a12 12 0 0 1-6.69-.69l1.84-1.41c-5.61-1.94-11-4-16.87-4.57h0c-.5-.82-1-.81-1.53 0a1.87 1.87 0 0 0-.35.57c-1.9-.21-1.83-3.24-4.14-2.87-.3-1.92-1.83-1.41-2.95-1.34-2.79.19-3.86-1.18-3.79-3.78 2.75-.78 5.17.59 7.59 1.4 5.25 1.76 10.94 2.25 15.77 5.26-4.8-.19-9.15-2.56-13.92-3 5.53 2.2 11.18 3.91 16.82 5.64 1.37.42 1.47-.36 1.41-1.36a1.78 1.78 0 0 1 1.79-.21c.49.47.85.29 1.12-.25 1.09-.15 1.94-1.24 3.18-.83-.53 1-1.68 2.38.28 2.89a3 3 0 0 0 3.89-2.45c.42-2-1.21-2-2.62-1.95 5.63-3.44 10.79-7.7 17.12-9.93 1.1 3 3.27 1.8 5 1.07a5 5 0 0 0 3.45-5c.13-.12-.93-.23-1.5-.35z" class="G"/><path d="M68.26 23.88c.82-3.94-2.38-5.67-4.59-7.65C61 13.86 58.48 11.37 55.86 9a1.78 1.78 0 0 1 1.31-2.5c.91-.31 2.29-.38 2.15-1.95 3.37-1.94 6.11-1.26 8.56 1.73 1.91 2.34 5.52 3 6.59 6.24a1.23 1.23 0 0 0-.34.11 1.2 1.2 0 0 0-.23.22c1.62 1.29 2.64 3.39 5 3.68v-.06c-.72 1.05-.09 1.37.82 1.53h0l-.16 1.45c-3.7 1.74-6.99 4.36-11.3 4.43z" class="J"/><path d="M50.15 25.66c3.78.44 2.46 3.67 3.17 5.79-.61 1.47-2.11 2.44-2.29 4.15l-10.1-2.45c-1.23-.28-2.21-.46-2 1.69.37 3.56.14 7.19.17 10.78-1 .12-2.11.39-3.06-.35C38.83 37.56 37 32.9 30.12 30c-.65-.63-1.32-1.13-2.27-.17l2.29.14c-2.37 1.34-4.86.69-6.83-.43-2.78-1.54-5.85-.21-8.66-1.54-1.21-.58-.43 2.58-2.17 2.82-.46-2.46 0-5.25-3.91-5.74a13.87 13.87 0 0 1-5.07-1.71c-1.29-.76-2 .13-2.78.83-.72-1.95-1.63-3.94 1.45-4.71a5.31 5.31 0 0 0 5.55 2.27c1.18.11 1.28-1.06 1.86-1.61 1.15.82 1.06 2.67 2.95 3 4.47.76 8.75 2.6 13.4 2.37-.1.43.09.53.47.4l.86.26a6.1 6.1 0 0 0 4.81 2.19c.75.75 1.82 1.36 2.58.64s-.11-1.5-.84-2h0a5.86 5.86 0 0 1 .19-.72h1 1.16l.75.69v-.08c-.27.94.5 1.54.78 2.3l-1 .26.27.38.69-.63.69.4c.32 1.24 1.33 1.12 2.27 1.15 2.3-.57 4.46.26 6.56.87 3 .88 3.44-.76 3.37-3a26.88 26.88 0 0 0-.39-2.97zm13.14 56.27c.2-2.58 2.71-2.66 4.22-3.68 4.88-3.32 10-6.22 14.91-9.54a8.72 8.72 0 0 0 4-8.33c2.19-4 .84-8.3.94-12.43.15-6.44-.74-12.89.18-19.35.19-1.34-.38-2.63-2.42-1.51-1.11.61-3 1.67-3.76-.3-.66-1.76.62-2.85 2.39-3.53a24.73 24.73 0 0 0 4.08-2.44 6.32 6.32 0 0 1 .68 3.6l.31 30.32c.29 8.93-2.58 15.58-11.29 19.31-3.62 1.56-6.78 4.2-10.12 6.41-1.3.83-2.49 1.73-4.12 1.47z" class="H"/><path d="M.72 24.2c.8-.7 1.49-1.59 2.78-.83a13.87 13.87 0 0 0 5.07 1.69c3.92.49 3.45 3.28 3.91 5.74l.39.7L12 39l-6.8-1.58L.85 33c-1.59-2.91.93-5.88-.13-8.8zm25.21 1.31c-4.65.23-8.93-1.61-13.4-2.37-1.89-.32-1.8-2.17-2.94-3 .66-.88-.88-2.11.45-2.89.47-.5 1.31-.8 1-1.75l.26-.06c1.87.49 3.33.17 3.86-2 .2-.9.39-1.83 1.5-.66 1.95 1.82.18 4.05.66 6 .66 2.69 2.33 4.39 5.15 4.39A4.54 4.54 0 0 1 26.23 25a1 1 0 0 1 .11.62 2 2 0 0 0-.41-.11z" class="J"/><path d="M26.23 25a4.54 4.54 0 0 0-3.8-1.78c-2.82 0-4.49-1.7-5.15-4.39-.48-2 1.29-4.2-.66-6l8.23-3.07c-1.75 2.07-2.56 3.7 1.29 4.24 1.23.17 1.22 2 1.72 3 .37.8-.08 2.08 1.38 2.19-.11 1.11-1.85 1.91-.61 3.27.29 1-.72 1.39-.89 2.16h0zm.15-6.43c.1-4.63-3.54-2-5.17-3.33-.9-.71-2.34 1.12-2.35 2.62a3.54 3.54 0 0 0 3.88 3.69 3.57 3.57 0 0 0 3.64-2.99zm-3.74 53.51c-.07 2.6 1 4 3.79 3.78 1.12-.07 2.65-.58 2.95 1.34-3 1.58-6 1-9 0-2.62-3-6.25-3.19-9.8-3.66-.69-.1-1.72 0-.82-1.18 4.11-.53 7.6 2.1 11.58 2.56l-.17-3.55z" class="H"/><path d="M21.14,71.34l.17,3.55c-4-.46-7.47-3.09-11.58-2.56l.1-.22-.66-.58-.14.2.78.39c-.06,1.75-1.1,1.35-1.91.73-2-1.52-3.69-3.24-3.37-6.06.94-.18,2-.73,2.52.67-1.13.24-1.87.8-.29,1.35,3.8,1.33,7.69,2.42,11.54,3.65,1.14.36,1.94.29,2-1.14Z" class="G"/><path d="M29.24 19.2c-1.46-.11-1-1.39-1.38-2.19-.5-1.07-.49-2.87-1.72-3-3.85-.54-3-2.17-1.29-4.24.09-1.16.37-1.93 1.56-.74 0 2.33 2.26 1.42 3.25 2.31a1.38 1.38 0 0 0 .4 0 17.36 17.36 0 0 1-.82 7.86z" class="J"/><path d="M35.36,79.49c5.84.56,11.26,2.63,16.87,4.57l-1.84,1.41c-5.22-.83-10-3-15-4.54Z" class="H"/><path d="M53.37 6.26L50.6 3.75c-1-2.12 2.68-1.69 1.95-3.65 1.71-.32 3 0 3.07 2.08-.27 1.62 1.49 4.36-2.25 4.08z" class="J"/><path d="M10 17.25c-1.33.78.21 2-.45 2.89-.62.56-.69 1.73-1.87 1.62.29-3-1.74-3-3.81-2.84 2.36-1.36 4.66-2.85 7.36-3.47h0l-.23.05a1.39 1.39 0 0 0-1 1.75z" class="G"/><path d="M.85 33l4.32 4.38c-4.64-1.1-2.51 2.44-2.9 4.25C.17 39 1.21 35.89.85 33zM52.55.1c.73 2-3 1.53-1.95 3.65l-4 .92L45 4.5a1.65 1.65 0 0 0-.52-2c2.98.24 5.27-1.94 8.07-2.4zm4.53 86.06c-.26-.91-1.69-.4-1.85-1.83 2.92 0 4.92-2.85 8.05-2.4-1.34 2.48-3.73 3.41-6.2 4.23z" class="H"/><path d="M3.91,18.92c2.07-.13,4.1-.2,3.81,2.84a5.31,5.31,0,0,1-5.55-2.27Z" class="I"/><path d="M53.37 6.26c3.74.28 2-2.46 2.25-4.08 1.27.73 1 3.85 3.7 2.37.14 1.57-1.24 1.64-2.15 2A1.78 1.78 0 0 0 55.86 9c-1.46-.36-2.53-1-2.49-2.74zM10.55 73.51c3.55.47 7.18.71 9.8 3.66a27.38 27.38 0 0 1-9.8-3.66zm68.34-56.98c-2.35-.29-3.37-2.39-5-3.68a1.2 1.2 0 0 1 .23-.22 1.23 1.23 0 0 1 .34-.11l4.81 1c-2.12.74-1.06 1.9-.38 3.01z" class="G"/><path d="M31.62,6.87c-.23,1.46.87,3.67-2,3.64-.16-.89-.79-1.73-.23-2.68Z" class="I"/><path d="M29.36 7.83c-.56.95.07 1.79.23 2.68 0 .26 0 .53.07.79-1-.89-3.27 0-3.25-2.31 1.27.34 1.88-.99 2.95-1.16zm-18.1 7.61h0c1.08-1 1.88-2.65 3.85-2-.52 2.17-1.98 2.49-3.85 2z" class="H"/><path d="M43.61 2.38c-.47 1.76-1.67 1.76-3.07 1.26.79-.99 2.09-.74 3.07-1.26zm-4.47 1.44c-.35 1.26-.84 2.27-2.39 1.29z" class="I"/><path d="M35.36,79.49v1.44l-1.83-.86a1.87,1.87,0,0,1,.35-.57H35.4Z" class="G"/><path d="M9.81,72.12,9,71.73l.14-.2.66.58Z" class="H"/><path d="M3.88 65.84c.5.15.82.41.71 1-.88.16-.82-.42-.71-1z" class="G"/><path d="M33,6.59c0,.47-.22.62-.59.22A.9.9,0,0,1,33,6.59Z" class="I"/><path d="M12.87 31.5l-.39-.7c1.74-.24 1-3.4 2.17-2.82 2.81 1.35 5.88 0 8.66 1.57 2 1.12 4.46 1.77 6.83.43h0c6.9 2.89 8.71 7.55 5.93 15.26l-10.53-2.7c.08-.86.21-1.73.23-2.6.1-5.16-.38-5.8-5.23-6.87l-7.67-1.57zm22.39 6.3l.07-1.34c-2.4-1.66-3.37-1.64-3.69.06V38c-.5 2.27 1.36 2.36 2.62 2.41 1.75.07 1.07-1.41 1-2.39zm-2.91-4.43l-.42-.8c-.27.15-.74.29-.74.45a1.19 1.19 0 0 0 .42.87c.39.28.6-.03.74-.52z" class="G"/><path d="M39.11 45.62c0-3.59.2-7.22-.17-10.78-.22-2.15.76-2 2-1.69 3.38.76 6.74 1.62 10.1 2.45v.14 1c0 1.81.13 3.64 0 5.44-.19 2.2 1 4.59-.79 6.59-3.79-.77-7.64-1.32-11.14-3.15z" class="J"/><path d="M12.87 31.5l7.65 1.6c4.85 1.07 5.33 1.71 5.23 6.87 0 .87-.15 1.74-.23 2.6L12 39z" class="H"/><path d="M50.26 48.75c1.78-2 .6-4.39.79-6.59.15-1.8 0-3.63 0-5.44l.83-.6c1.59-.16 2.56-2.32 4.48-1.37-1 3.35-2.45 6.54-2.88 10-1.78 1.15-.63 3.31-1.65 4.72-.63.05-1.32.12-1.57-.72z" class="G"/><path d="M50.31 80.06c.06 1 0 1.78-1.41 1.36-5.64-1.73-11.29-3.42-16.82-5.64 4.77.4 9.12 2.77 13.92 3a5.78 5.78 0 0 1 4.31 1.28zm-29.98-8.74c-.09 1.43-.89 1.5-2 1.14-3.85-1.23-7.74-2.32-11.54-3.65-1.58-.55-.84-1.11.29-1.35a60.87 60.87 0 0 1 13.25 3.86zm31.43-19.27c1.39 3.25.27 6.67.69 10-2.2-3.21-1.01-6.63-.69-10zm1.46 27.55c-.27.54-.63.72-1.12.25.08-3.34-.6-6.72.44-10 .84 3.2.34 6.5.68 9.75z" class="H"/><path d="M72.18 27c.11-1 1.06-1 1.67-1.18 2-.53 3.78-3.41 5.72-1.7s-.67 8-3.31 9.29c-1.63.81-3.11 2.09-5.09 2-1.08-.63 0-1.23 0-1.85.04-2.17 2.15-4.1 1.01-6.56zm-11.51 5.42c2-1.85 4.56-2.61 7.12-3.31-.4 3.32-2.36 6.28-2.24 9.72-2.18 1.42-4.1 3.41-7 3.17.5-3.24 2.45-6.16 2.12-9.58z" class="G"/><path d="M65.55 38.83c-.12-3.44 1.84-6.4 2.24-9.72L72.18 27c1.14 2.42-1 4.35-1 6.6 0 .62-1.09 1.22 0 1.85zm-4.88-6.41c.29 3.42-1.62 6.34-2.15 9.58l.07-.07-.76.67a9.25 9.25 0 0 1-4.33 2.19c.43-3.5 1.93-6.69 2.88-10z" fill="#fafafa"/><path d="M81.93 63c.57.12 1.63.23 1.63.38a5 5 0 0 1-3.45 5c-1.77.73-3.94 2-5-1.07zM58 77.26c1.41-.06 3-.1 2.62 1.95a3 3 0 0 1-3.89 2.45c-2-.51-.81-1.85-.28-2.89z" class="H"/><g class="G"><path d="M79.48,19.41c0-.49.1-1,.16-1.45.89,0,1,.64,1.18,1.3Z"/><path d="M79.66 18c-.91-.16-1.54-.48-.82-1.53.79.24 1.23.66.82 1.53z"/></g><path d="M51.9 36.12l-.83.6v-1z" class="H"/><path d="M57.83 42.6l.76-.67c.31.86-.37.6-.76.67z" class="G"/><path d="M29.24 19.2a17.36 17.36 0 0 0 .82-7.93h3.08v1.35c.19 0 .47 0 .55-.11.47-.67.29-1.1-.54-1.24a3.75 3.75 0 0 1 2.37-3.46c.76-.31 1.57-1.26 2.34-.65 1.21.94-.29 1.16-.6 1.76-.48.95.65 1.45 1.21 2l10.61 10.76c.65.68 3.28 1.44.75 3.11-1.14-1.45-1.95-3.35-4.31-3.08-1-2.77-3.5-4.19-5.61-5.94-1-1.18-1-3.21-2.91-3.72-1-.67-1.7-.53-2 .71a2 2 0 0 0-.36 1.83c-1.81 2.4-1.93 5.12-1.51 8h-.71l.7-10.07c-2.69 2-1.07 4.71-2.31 6.42-.76.22-.65.85-.69 1.42v-.06c-.82.24-.83.89-.79 1.56v-.05l-.8.8v-.06c-1.14-1.44.6-2.24.71-3.35z" class="I"/><path d="M45.52 21.71c2.36-.27 3.17 1.63 4.31 3.08l.32.87a26.88 26.88 0 0 1 .43 2.93c.07 2.27-.35 3.91-3.37 3-2.1-.61-4.26-1.44-6.56-.87-.45-1-1.54-.72-2.27-1.15l-.69-.4h0c-.28-.76-1-1.36-.78-2.3 6.43.13 7.09-.26 8.61-5.16z" class="J"/><path d="M45 4.5l1.68.17c0 1.8-1.78.63-2.47 1.43-.4.47-1-.07-1-.53-.14-1.45 1.05-.89 1.79-1.07zm-3.41 1.01a2.7 2.7 0 0 1 .41.91c0 .4-.29.73-.69.42a1.63 1.63 0 0 1-.37-1c-.01-.02.36-.16.65-.33z" class="I"/><path d="M35.4 79.51h-1.53c.52-.81 1.03-.82 1.53 0z" class="H"/><path d="M45.52 21.71C44 26.61 43.34 27 36.9 26.89v.08c.29-.82-.32-.66-.75-.69H35l-.48-1.51c1.63-1.27.77-3 .82-4.54.4-2.63 3.46-2.55 4.56-4.46 2.1 1.75 4.59 3.17 5.62 5.94z" class="G"/><path d="M32.07 28.36a6.1 6.1 0 0 1-4.81-2.19 1.4 1.4 0 0 0 .48-1.57h0c2 .48 3.76-.33 5.62-.67l.21.8c-.71.85-1.19 1.67.26 2.28h0a2 2 0 0 1-1.76 1.35z" class="I"/><path d="M32.07 28.36A2 2 0 0 0 33.81 27c.73.5 1.53 1.35.84 2s-1.83.11-2.58-.64z" class="G"/><path d="M27.74,24.6a1.4,1.4,0,0,1-.48,1.57l-.86-.26-.06-.3a1,1,0,0,0-.11-.62Z" class="K"/><path d="M30.14 30l-2.29-.14c.95-1 1.62-.46 2.27.17zm8.24-.4c.73.43 1.82.15 2.27 1.15-.94-.03-1.95.09-2.27-1.15zM33.83 27c-1.45-.61-1-1.43-.26-2.28h-.06l.49 1.6a5.86 5.86 0 0 0-.17.68zm3.86 2.2l-.69.63-.27-.38 1-.26z" class="G"/><path d="M34 26.32l-.51-1.58h1l.51 1.54z" class="I"/><path d="M36.17,26.28c.43,0,1-.13.75.69Z" class="J"/><path d="M26.34 25.61l.06.3c-.38.13-.57 0-.47-.4a2 2 0 0 1 .41.1zM10 17.25a1.39 1.39 0 0 1 1-1.75c.35.95-.49 1.25-1 1.75z" class="I"/><path d="M26.38 18.56a3.57 3.57 0 0 1-3.64 3 3.54 3.54 0 0 1-3.88-3.69c0-1.5 1.45-3.33 2.35-2.62 1.63 1.26 5.27-1.32 5.17 3.31z" class="G"/><path d="M33.36 24c-1.86.34-3.66 1.15-5.62.67.17-.77 1.18-1.2.89-2.16v.06c.53 0 .7-.37.8-.8v.05c.73-.28.85-.87.79-1.56v.06l1.39-.21c.31.81-.35 2 .91 2.44h.71a1.23 1.23 0 0 1 .13 1.45z" class="K"/><path d="M35.3 38.06c.05 1 .73 2.46-1 2.39-1.3-.05-3.14-.14-2.64-2.45z" class="H"/><path d="M31.64,36.52c.32-1.7,1.29-1.72,3.68-.05Z" class="K"/><path d="M31.64,36.52l3.68-.05-.06,1.33-3.61-.1Z" class="H"/><path d="M31.65 37.7l3.61.1v.26h-3.64z" class="K"/><path d="M32.35,33.37c-.14.49-.36.8-.74.52a1.19,1.19,0,0,1-.42-.87c0-.16.47-.3.74-.45Z" class="H"/><path d="M39.91 15.77c-1.1 1.91-4.16 1.83-4.56 4.46-2.07-1.64 0-3.82-.73-5.64a2 2 0 0 1 .38-1.83 1.85 1.85 0 0 0 2-.71c1.9.51 1.86 2.54 2.91 3.72z" class="J"/><path d="M34.62 14.59c.72 1.82-1.34 4 .73 5.64-.05 1.55.81 3.27-.82 4.54h-1 .06l-.21-.8a1.23 1.23 0 0 0-.25-1.42c-.44-2.84-.32-5.55 1.49-7.96z" class="H"/><path d="M32.4 22.51c-1.26-.46-.6-1.63-.91-2.44a.93.93 0 0 0-.7-1.21c1.24-1.71-.38-4.39 2.31-6.42l-.7 10.07z" class="G"/><g class="H"><path d="M30.79 18.86a.93.93 0 0 1 .7 1.21l-1.39.21c.04-.57-.1-1.2.69-1.42zM37 12.05a1.85 1.85 0 0 1-2 .71c.3-1.24 1-1.38 2-.71z"/><path d="M30.15 20.22c.06.69-.06 1.28-.79 1.56-.04-.67-.03-1.32.79-1.56zm2.99-8.95c.83.14 1 .57.54 1.24-.08.12-.36.08-.55.11v-1.35z"/><path d="M29.4 21.73c-.1.43-.27.8-.8.8l.8-.8z"/></g></svg>