<svg xmlns="http://www.w3.org/2000/svg" viewBox="0 0 108.99 123.65" xmlns:v="https://vecta.io/nano"><style><![CDATA[.G{fill:#42484f}.H{fill:#1a2125}.I{fill:#9192a2}.J{fill:#686868}.K{fill:#f5b60f}]]></style><path d="M28.57 123.65c-7.43-3.58-15-7-22.26-10.81-6-3.18-7.44-6.35-5.5-12.64A97.33 97.33 0 0 1 11 78.67a4.83 4.83 0 0 1 4.08-2.46c3.82 3.42 13.94 3.12 17.33-.51 2.5.31 3.15 2.57 4.43 4.18-4.83-1-9.45.84-14.2 1-1 0-2.45.35-2.62 1.79-.14 1.1.76 1.79 1.57 2.33 2.81 1.89 13.94-.68 15.95-3.64l2.05-.53c.83 1.54 3.06 2.4 2.33 4.71l-13.18 2c-1.67.27-4.2-.25-3.75 2.59a3.75 3.75 0 0 0 4.63 3.41c3.38-.54 6.79-1.46 10.22-1.69 3.1-.21 4.07-1.56 3.74-4.37a3.46 3.46 0 0 1 2.33 2.06c-1.08 1.67 1.37 2.72.76 4.31l-13.15 1.81c-1.59.22-3.88 0-3.52 2.32.27 1.77 1.08 4.75 3.24 4.41 5.53-.88 11.5-.33 16.41-3.93L52 99.83l1.12 3c-5.11-1-9.74 1.49-14.64 2.11-1.46.18-4.66.06-3.46 3.38.81 2.24 1.36 4.86 5.09 3.45a61.24 61.24 0 0 1 9.64-2.3 5.83 5.83 0 0 0 4.67-3.79c.73 2.63 1.25 5.26.06 7.9-1-.52-1.25-2.16-2.72-1.79-4.47 1.12-9.15 1.82-13.3 3.66-2.29 1-4.6 3.79-1.93 7-.67.34-1.71 0-2 1.13zM6.42 105.57c-.73.4-.64.79 0 1.2l1 1.1a3.87 3.87 0 0 0 .12.68 2 2 0 0 0 2.44 1.21h.29c1.38 1 1.75-.18 2.25-1.07v-1.15l1-1.1c5.12-.77 2-5 2.69-7.41.53-1.77-1.34-4.64-4.54-4.46-2.29-.27-3.76.56-4.1 3l-1 7.14a3.48 3.48 0 0 0 0 .79zm25 2.2c-1-1.4-1.19-4-3.94-2.33-1 .62-2.23 1-2.85 1.91a6.36 6.36 0 0 0-.2 7.43c1.26 1.86 3.5 2.48 5.23 0 4-.39 3.33-2.61 2-5.08zM17.61 86.52c-.27-1.67 0-4.53-2.79-4.55s-3 2.72-3.06 4.84.71 4 3.33 4 2.51-2.06 2.52-4.29zm1.81 10.6c.23 1.36-.23 3.5 2.28 3.39 2.11-.09 2.65-1.94 2.46-3.62-.17-1.52-.12-3.88-2.11-4-2.45-.14-2.33 2.26-2.63 4.23z" class="H"/><path d="M46.67 93.85c.61-1.59-1.84-2.64-.77-4.31 1.68.16 2.46 1.56 3.56 2.53 1.39 1.21 2.17 2.54 4.91 2.06 3.58-.62.44-3.47 2.69-4.56.94 2.17 2.34 3 4.71 1.61 2.7-1.53 1.81-3.42 1.33-5.5-.64-2.83-1.19-5.6-.58-8.6.49-2.45-.06-4.81-3.57-4.39-2.46-1.14-5.48-.16-7.73-2-.56-2.84-2.91-1.7-4.58-2 1-2 2.82-1.15 4.31-1.25l15.57-.8h8.21V72c.26 4.26-1.24 8.62.79 12.77h0c0 .9.62.91 1.27.88 3.19-1.69 5 1.7 7.59 2.1 3 6.68 1.94 8.53-4.77 9.05l-23.19 2.11c-1.68-.53-2.89 1-4.45 1l-2.34-1.37c.16-2.35-2.12-3.06-2.96-4.69zm-9.82-13.97c-1.28-1.61-1.93-3.87-4.43-4.18-4.59-1.36-9.34 1-13.92-.62-.39-.91-1.19-1.86-1.09-2.71.39-3.26-.65-4.41-4.13-4.88C8.26 66.81 8 65.7 11 61.38c.67-1 .13-1.46-.22-2.14-.78-1.52 0-3.15 1.16-3.31 6.44-.91 12-4.87 18.94-4.6 3.92.15 8.43 0 12.38-1.79a4.5 4.5 0 0 0 2.31 2.37c-2.21 3.76-.39 7.87-1 11.77h-2.92c-.71-1-1.54-1.34-2.61-.42a3 3 0 0 0 2.65.36c.45 1.6 2 .83 3 1.44v.13l-.33 1.08-.4 2.19h0 0c0-1-.77-1.38-1.37-1.92-1.54-2-4.26-1.94-6.06-3.49l-2.5.75c-1-3.5-3.76-2.87-6.32-2.76l-1.45-1.38c.17-.58-.07-.78-.6-.6-.08 0 0 .45 0 .69h.09c-2.11-.18-4.82-1.57-5.52 1.79-.58 2.85-1.61 6.2 2.54 7.6 2.42 3.31 6.14 3.1 9.61 3.54a6.18 6.18 0 0 0 3.8-.25l1.93 1c1.65 1.41 2.93 2.9 5.71 1.47 2.12-1.09.39 1.43 1 2l-.35 1.8c-2-.24-2.89 2-4.73 2.24l-2.05.53z" class="K"/><path d="M56.44 98.79l23.19-2.11c6.71-.52 7.75-2.37 4.77-9.05l4.11-4.12c2.38 2.92 6.58 2.77 11.16-.39l2 2.33c-2.64 2.37-6.23 1.56-9.19 2.78-1.2.49-3.75-.33-3.39 1.76s1.73 4 4.5 3.63l8.77-1.18c1.83-.29 2.17-1.78 2.32-3.33 3.59 4.32 6 8.87 2.72 14.48-.62-.51-1.3-1.52-1.85-1.46a76.26 76.26 0 0 0-12.1 1.92c-2.15.6-4.72 2.2-3 5.49-1.79.22-3.74 1-5.35.57-9.89-2.75-19.62-6.18-28.66-11.32zm40.2 2.79c2.46-.53 5.68-1.31 8.94-1.9 2.15-.39 2.07-1.89 1.91-3.39a2.4 2.4 0 0 0-3.1-2.35c-3.1.52-6.18 1.21-9.29 1.57-2.71.32-2.54 2.08-2.45 4 .1 2.14 1.6 2.17 3.99 2.07zm-9.4-7.29c-1 1.28-.61 3.52-3 3.35s-3.08 1.4-2.62 3.5 1.71 3.6 4 3.52 3-1.76 3-3.74.38-4.28-1.38-6.63z" class="H"/><path d="M57.55 26.64c1.32 2.89 2.4 5.66 5.35 7.74 3.85 2.73 3.16 6.24-1.12 8.29-3 1.42-5.31 3.17-6.06 6.53-3.7-1.08-7.67 1.47-11.28-.83l3.17-3.75c2.18.6 4.91-.18 4.6-2a20 20 0 0 1 .31-7.92c1.72-2.43-1.21-4-1.16-6.09l.55-.85c.88-.15 1.75-.48 1.36-1.55a1.67 1.67 0 0 0-2.38-1.07c-2.24 1-4.57.54-6.87.56-3.38-.43-5.31-2.28-5.59-6s-1.62-8.4 4.07-9.92l3-1a15.19 15.19 0 0 1 0 2.94c-1.38 6.68 1 9.81 7.67 10 1.23 0 2.72-.64 3.54 1-2.59 1.84-2.28 3.18.84 3.92z" class="I"/><path d="M42.5 9.69c-5.69 1.52-4.37 6-4.07 9.92s2.21 5.61 5.59 6c1.75 2.3 4.82-.19 6.64 1.82-1.74.88-4.68-1.21-5.41 2.18-2.94-.51-5.33 2.75-8.42 1.23-8.4-2-11.08-5-11.94-13.3C28.83 8.77 37.07 6.65 45.28 4.5c1.13.17 2.48 2.07 3.28-.41h4v.12l-2.5 1.48-3.63 1.7-1 .41C43.2 6.49 41.9 6.61 42.5 9.69z" class="K"/><path d="M44.44 48.37c3.61 2.3 7.58-.25 11.28.83l26.29.17c1.46 0 3.41-.95 4.3 1.26l-.74 1-6.16-.1a3.35 3.35 0 0 0-3 2.17c-3-.25-4.34 1-3.71 4 .54 2.55-1.82 6.79 3.68 6.6l-1.68 2.21h-8.18a3.71 3.71 0 0 0 0-.88c.41-9.29.41-9.29-6.85-8.76l-6.84-2.35c-1-4.79-4.65-2.42-7.33-2.64a4.5 4.5 0 0 1-2.31-2.37z" class="H"/><path d="M88.51 83.51l-4.11 4.12c-2.61-.4-4.4-3.79-7.59-2.1l-1.27-.88h0c.22-5.87.21-11.76 1.48-18.49 1.71 2.51 2.9 4.58 5.52 4.45.34.92 1.16 1.14 2 1.35-.07 2.44-2.74 4.25-1.55 7.29A16.64 16.64 0 0 0 85.58 72c2 .06 4 1.29 6.07.57 2-.24 3.15.85 4.07 2.39 0 1.25-.11 2.49-.16 3.74-3.67-1.55-4.73 1.22-6 3.62l-1 1.38z" class="I"/><path d="M36.83 30.88c3.09 1.52 5.48-1.74 8.41-1.23h.26l.2.2-2.4 1.58c1.63.12 2.9.95 4.29.26h0c-.52.4-.52.79 0 1.19 1.69 2.23 2.25 4.15-1.35 4.92a55.66 55.66 0 0 0-13.79.9c-6.36 1.28-12-2.56-12-7.41 0-1.93.43-3.54 2.17-4.6 2.18.62 2.24 2.65 2.79 4.3.76 2.26 3.84 4.16 4.39 3.42 1.87-2.63 6.78 1.5 7.03-3.53z" class="G"/><path d="M86.39,18.56c-2.44,1.89-.84,6.62-4.4,7.3-5.42,1-10.6,4.87-16.5,2,3-1.12,7.09,2,9.13-2.5-2.26-1.63-5.79-1.86-6.2-5.56,6.11,1,9-.32,10.55-4.4,1.5-3.92-1.39-6.05-3.2-8.65,2.79-.11,4.9,2.64,7.86,1.84h0c-1,3.38,2.42,6.55.46,10Z" class="I"/><path d="M54.41 105.71a5.83 5.83 0 0 1-4.67 3.79 61.24 61.24 0 0 0-9.64 2.3c-3.73 1.41-4.28-1.21-5.09-3.45-1.2-3.32 2-3.2 3.46-3.38 4.9-.62 9.53-3.15 14.64-2.11a4.08 4.08 0 0 1 1.3 2.85zm-17.89 16.81c-2.67-3.25-.36-6 1.93-7 4.15-1.84 8.83-2.54 13.3-3.66 1.47-.37 1.76 1.27 2.72 1.79-1.36 4.4-5.23 5.35-8.95 6.45-2.98.9-6 1.6-9 2.42z" class="G"/><path d="M68.42 19.79c.41 3.7 3.94 3.93 6.2 5.56-4.56 1.93-9.25 1.5-14 .84l-1.71-.41-.59-1-.24-2c-.92-2.86 3.42-4.32 2-7.33 1.62 0 3.26-.21 3.83 2a3 3 0 0 0 3.33 2.23l1.3.12z" class="K"/><path d="M36.83 30.88c-.25 5-5.16.9-7.09 3.47-.55.74-3.63-1.16-4.39-3.42-.55-1.65-.61-3.68-2.79-4.3a40.87 40.87 0 0 0-.27-5.87c-.43-2.31.71-3 2.6-3.18.86 8.27 3.54 11.26 11.94 13.3z" class="I"/><path d="M104.72 89.11c-.15 1.55-.49 3-2.32 3.33l-8.77 1.18C90.86 94 89.46 92 89.13 90s2.19-1.27 3.39-1.76c3-1.22 6.55-.41 9.19-2.78a8.39 8.39 0 0 1 3.01 3.65z" class="G"/><path d="M84.55,72c-.82-.21-1.64-.43-2-1.35-1.52-2.46-2.8-4.85,1.58-5.72.17,0,.18-.9.26-1.38l.12.06,1-1-.08-.09L87.14,61l2.5,2.41c-1.17,3.45,3.43,5.63,2,9.14-2.1.72-4-.51-6.07-.57Z" class="J"/><path d="M90.53 109.54c-1.76-3.29.81-4.89 3-5.49a76.26 76.26 0 0 1 12.1-1.92c.55-.06 1.23 1 1.85 1.46a3.56 3.56 0 0 1-3 2.82c-4.91.23-9.18 2.77-13.95 3.13zm-.98-27.27c1.28-2.4 2.34-5.17 6-3.62l4.11 4.47c-4.58 3.16-8.78 3.31-11.16.39v.14zM83.63 8.58c-3 .8-5.07-1.95-7.86-1.85l-3.14-1.05c-2.21-2.21-5.22-2.2-8-2.9v-2c7 .95 13.55 3.05 19 7.8z" class="G"/><path d="M46.2 37.74c3.6-.77 3-2.69 1.35-4.92a1.24 1.24 0 0 0 1.12-1.18c2 .11 1.93 2.82 3.85 3a20 20 0 0 0-.31 7.92c.31 1.87-2.42 2.65-4.6 2 2.05-2.75 1.56-5.04-1.41-6.82z" class="H"/><g class="G"><path d="M18.5 75.08c4.58 1.6 9.33-.74 13.92.62-3.39 3.63-13.51 3.93-17.33.51zM55.31 1.3a8.88 8.88 0 0 1 8-.63 6.44 6.44 0 0 0 .26 7v3l-2.47.86c-1.76-3.34.93-9.18-5.56-9.86zm36.34 71.22c1.42-3.51-3.18-5.69-2-9.14 3.41 2.53 4 7 6.76 10 .52.54-.05 1.21-.68 1.57-.93-1.58-2.11-2.67-4.08-2.43zm-5.26-53.96H84.1c2-3.42-1.45-6.59-.46-10 2.81 2.83 3.24 6.29 2.75 10zm-25.74 7.63c4.72.66 9.41 1.09 14-.84-2 4.5-6.16 1.38-9.13 2.5-1.78-.15-3.82.53-4.87-1.66zM87.14 61l-1.69 1.55.12-10.85.74-1 .83 10.3z"/><path d="M52.56 4.06h-4l-.92-1.23c2.54-.58 5-1.81 7.66-1.56l.26.36c-.18 1.85-2.69.76-3 2.43z"/></g><path d="M63.56 7.67a6.44 6.44 0 0 1-.26-7l1.32.09v2l-1.06 4.91z" class="J"/><path d="M58.11,22.77l.24,2c-.59.16-.85.48-.54,1.08a1.52,1.52,0,0,1-.26.8c-3.12-.74-3.43-2.08-.85-4Z" class="G"/><path d="M47.65 2.86l.92 1.23c-.81 2.48-2.16.58-3.29.41a2.15 2.15 0 0 1 2.37-1.64z" class="J"/><path d="M57.81 25.84c-.31-.6-.05-.92.54-1.08l.59 1zM39.6 80.85c1.84-.19 2.68-2.48 4.73-2.24.94 1.83 2.51 2.62 4.34 1.83 1.57-.68 2.74-.2 4 .44a11.36 11.36 0 0 0 2.88 7.28c-.65-2.55-1-5.23-2.8-7.34.42-2 2-3 3.75-3.55 2.54-.75 2.65-2.52 2.45-4.58 3.5-.42 4 1.94 3.56 4.39-.61 3-.06 5.77.58 8.6.48 2.08 1.37 4-1.33 5.5-2.37 1.34-3.77.56-4.71-1.61-2.25 1.09.89 3.94-2.69 4.56-2.74.48-3.52-.85-4.91-2.06-1.1-1-1.88-2.37-3.56-2.53a3.42 3.42 0 0 0-2.32-2.06l-1.65-1.92c.74-2.31-1.49-3.17-2.32-4.71z" class="I"/><path d="M46.67 93.85c.84 1.63 3.12 2.34 3 4.61-4.91 3.6-10.88 3.05-16.41 3.93-2.16.34-3-2.64-3.24-4.41-.36-2.34 1.93-2.1 3.52-2.32l13.13-1.81zm-4.74-8.29l1.65 1.92c.33 2.81-.64 4.16-3.74 4.37-3.43.23-6.8 1.19-10.21 1.76A3.75 3.75 0 0 1 25 90.2c-.45-2.84 2.08-2.32 3.75-2.59l13.18-2.05zm-5.08-5.68l.7 1.5c-2 3-13.14 5.53-15.95 3.64-.81-.54-1.71-1.23-1.57-2.33.17-1.44 1.61-1.75 2.62-1.79 4.75-.18 9.35-2.05 14.2-1.02z" class="G"/><path d="M13.45 106.48l-1 1.1-5.11.29-1-1.11v-1.19h0l.65-.37-.64-.42q.52-3.57 1-7.14c.34-2.42 1.81-3.25 4.1-3 3.1 3.56 1.92 7.8 2 11.84zm16.21 8.26c-1.73 2.52-4 1.9-5.23 0a6.36 6.36 0 0 1 .2-7.43c.62-.87 1.88-1.29 2.85-1.91 1.11 1.13 2 2.57 3.94 2.33l.2 1.89c-3.26.73-1.62 3.29-1.96 5.12zM17.61 86.52c0 2.23.12 4.27-2.52 4.31s-3.34-2-3.33-4S12.19 82 14.82 82s2.52 2.85 2.79 4.52zm1.81 10.6c.3-2 .18-4.37 2.63-4.23 2 .12 1.94 2.48 2.11 4 .19 1.68-.35 3.53-2.46 3.62-2.51.11-2.05-2.03-2.28-3.39z" class="J"/><path d="M13.45 106.48c-.08-4 1.1-8.28-1.85-11.87 3.2-.18 5.07 2.69 4.54 4.46-.73 2.42 2.43 6.64-2.69 7.41zm16.21 8.26c.3-1.83-1.3-4.39 2-5.08 1.34 2.47 2.04 4.69-2 5.08zm1.76-6.97c-1.91.24-2.83-1.2-3.94-2.33 2.75-1.65 2.99.93 3.94 2.33zm-24.06.1l5.11-.29v1.15a2.68 2.68 0 0 0-2.25 1.07h-.29l-2.44-1.22a3.87 3.87 0 0 1-.13-.71z" class="G"/><path d="M10.21 109.8a2.68 2.68 0 0 1 2.25-1.07c-.46.89-.87 2.05-2.25 1.07zm-2.73-1.25l2.44 1.22a2.06 2.06 0 0 1-2.44-1.22z" class="J"/><path d="M6.46 104.73l.64.42-.65.37a3.48 3.48 0 0 1 .01-.79zm-.04.84v1.19c-.64-.4-.73-.76 0-1.19z" class="G"/><path d="M52.68 80.89a4.26 4.26 0 0 0-4-.45c-1.83.79-3.4 0-4.34-1.83l.35-1.8c2.72 0 3.19-1.3 1.87-3.51l.6-3.26c1.44-.35 2.85-.54 4.07.6 2.25 1.89 5.27.91 7.73 2 .21 2.06.1 3.83-2.44 4.58-1.73.51-3.33 1.5-3.75 3.55z" class="J"/><g class="G"><path d="M84.41 63.54c-.08.48-.09 1.35-.26 1.38-4.38.87-3.1 3.26-1.58 5.72-2.62.13-3.81-1.94-5.52-4.45-1.27 6.73-1.26 12.62-1.48 18.49-2-4.15-.53-8.51-.79-12.77-.11-1.78 0-3.57 0-5.36l1.68-2.21c1.64-1.26.78-3.13 1.13-4.7a3.36 3.36 0 0 0 0-1c-.5-1.62.64-3.61-1.11-4.95a3.35 3.35 0 0 1 3-2.17 54.85 54.85 0 0 1 .06 7.36C79 63 80.7 64.22 84.41 63.54zm-31.54-8.99l6.83 2.35c.34 2.69-1.25 3.82-3.52 4.5a1.84 1.84 0 0 0-1.44 2.27 2.38 2.38 0 0 0 .82 1.1c3.87-2.06 7.2 2.47 11 .89a3.71 3.71 0 0 1 0 .88l-15.57.8c-1.49.1-3.35-.78-4.31 1.25-.23.29-.45.59-.67.88l-2.12-1 .4-2.19 1.54.05c7.23.79 7.2.79 6.93-6.36-.11-1.83.05-3.63.11-5.42z"/><path d="M51.22 70.64c-1.22-1.14-2.63-1-4.07-.6L46 69.48l.67-.89c1.64.35 3.99-.79 4.55 2.05zm24.32 14.01l1.27.88c-.65.03-1.26.02-1.27-.88z"/></g><path d="M52.87 54.55l-.15 5.38c.27 7.15.3 7.15-6.93 6.37l-1.21-1.14V65l-.09-1.35c.65-3.9-1.17-8 1-11.77 2.73.25 6.34-2.12 7.38 2.67z" class="I"/><path d="M46.55 73.3c1.32 2.21.85 3.46-1.87 3.51-.61-.61 1.12-3.13-1-2-2.78 1.39-4.06-.1-5.68-1.51 2.08-3.83-1.67-6.79-1.56-10.32 1.8 1.55 4.52 1.51 6.06 3.5-.26 1.15-.5 2.29 1.37 1.91h0c1.34 1.4-1.81 5.27 2.68 4.91zM22.63 69c-4.15-1.41-3.12-4.76-2.54-7.61.7-3.36 3.41-2 5.52-1.79-1.58 3.23 1.2 5.91 1.1 8.95zm4.96-8c2.56-.11 5.34-.74 6.33 2.75Q35 68 36 72.31a6.15 6.15 0 0 1-3.79.25c.41-1.37-.54-2.1-1.38-2.88-.3-3.19-1.83-5.91-3.24-8.68z" class="H"/><path d="M27.59 61c1.36 2.8 2.94 5.52 3.28 8.71a4.93 4.93 0 0 1-3.46-.31l-.81-.77h.11c.1-3-2.68-5.72-1.1-8.95h-.09l.62-.09z" class="I"/><path d="M36 72.31q-1-4.31-2.08-8.59l2.49-.72c-.11 3.51 3.64 6.47 1.59 10.3z" fill="#fbfbfb"/><path d="M27.41 69.37a4.93 4.93 0 0 0 3.46.31c.84.78 1.79 1.51 1.38 2.88-3.48-.44-7.2-.23-9.62-3.54l4.08-.44h-.11z" class="G"/><path d="M46.55,73.3c-4.49.36-1.34-3.51-2.7-4.88h0l2.12,1,1.18.57Z" class="I"/><g class="H"><path d="M44.5 63.68l.09 1.32c-.93-.61-2.52.16-3-1.44v.06z"/><path d="M41.62,63.59A3,3,0,0,1,39,63.23c1.07-.92,1.9-.62,2.61.42Z"/></g><path d="M43.84 68.39c-1.87.38-1.63-.76-1.37-1.91.6.52 1.42.91 1.37 1.91zm.74-3.23l1.21 1.14-1.54-.06z" class="J"/><path d="M26.14 59.59l-.62.09c0-.24-.06-.66 0-.69.55-.18.79.01.62.6z" class="H"/><path d="M96.64 101.58c-2.39.1-3.89.07-4-2.1-.09-1.89-.26-3.65 2.45-4 3.11-.36 6.19-1.05 9.29-1.57a2.4 2.4 0 0 1 3.1 2.35c.16 1.5.24 3-1.91 3.39l-8.93 1.93z" class="G"/><path d="M87.24 94.29c1.78 2.35 1.45 4.53 1.42 6.63s-.66 3.67-3 3.74-3.58-1.38-4-3.52.08-3.68 2.62-3.5 1.96-2.07 2.96-3.35z" class="J"/><path d="M58.11 22.77l-1.41-.15c-.82-1.62-2.31-.94-3.54-1-6.65-.18-9-3.31-7.67-10a15.19 15.19 0 0 0 0-2.94 1.42 1.42 0 0 0-.07-.91l1-.41c5.56.08 10.93.53 13 7l.61 1c1.5 3.09-2.84 4.55-1.92 7.41z" class="H"/><path d="M52.52 34.65c-1.92-.19-1.87-2.9-3.85-3h-1.12 0c.85-.73-.06-1.27-.19-1.9l4-1.21c-.05 2.13 2.88 3.68 1.16 6.11zm-1.86-7.18c-1.82-2-4.89.48-6.64-1.82 2.3 0 4.63.46 6.87-.56a1.67 1.67 0 0 1 2.38 1.07c.39 1.07-.48 1.4-1.36 1.55z" class="G"/><path d="M50.66 27.47l1.25.24-.55.85-4 1.21-1.7.06-.2-.2h-.26c.8-3.37 3.72-1.28 5.46-2.16z" class="H"/><path d="M45.43 7.8a1.42 1.42 0 0 1 .07.91l-3 1c-.6-3.1.7-3.22 2.93-1.91z" class="J"/><path d="M59.46 14.42c-2.1-6.5-7.47-6.95-13-7l3.65-1.73c1.17.07 2.17-.13 2.5-1.48v-.12c.31-1.67 2.82-.58 3-2.4 6.49.68 3.8 6.52 5.56 9.86-1.79.25-1.7 1.59-1.71 2.87z" class="I"/><path d="M52.58 4.18c-.33 1.35-1.33 1.55-2.5 1.48zm13.98 61.48c-3.8 1.58-7.13-2.95-11-.89a2.38 2.38 0 0 1-.82-1.1 1.84 1.84 0 0 1 1.44-2.27c2.27-.68 3.86-1.81 3.52-4.5 7.3-.53 7.3-.53 6.86 8.76z" class="J"/><path d="M84.41,63.54c-3.71.68-5.44-.55-4.94-4.61a54.85,54.85,0,0,0-.06-7.36l6.16.1-.12,10.85.08.09c-.81-.15-1.12.2-1,1Z" class="I"/><path d="M76.44 53.74c1.75 1.34.61 3.33 1.11 4.95-.71.32-1.71-.42-2.23.61l2.22.34c-.35 1.57.51 3.44-1.13 4.7-5.5.19-3.14-4.05-3.68-6.6-.63-2.99.76-4.25 3.71-4zM84.55 72h1A16.64 16.64 0 0 1 83 79.28c-1.19-3.04 1.48-4.85 1.55-7.28z" class="K"/><path d="M89.55,82.27l-1,1.38Z" class="H"/><g fill="#fbfbfb"><path d="M45.7,29.83l1.7-.06c.13.63,1,1.17.19,1.9-1.39.69-2.66-.14-4.29-.26Z"/><path d="M47.55 31.63h1.12a1.24 1.24 0 0 1-1.12 1.18c-.55-.39-.55-.81 0-1.18z"/></g><path d="M72.63 5.68l3.14 1.05c1.81 2.61 4.7 4.74 3.2 8.66-1.56 4.08-4.44 5.37-10.55 4.4h.12c-.22-1-1-1-1.81-1.13l-1.34-5.12c.2-4.69 3.45-6.54 7.24-7.86z" class="H"/><path d="M65.39 13.51l1.34 5.12.51 1a3 3 0 0 1-3.33-2.23c-.57-2.18-2.21-2-3.83-2l-.62-1c0-1.28-.08-2.62 1.67-2.9l2.47-.86a3.63 3.63 0 0 0 1.79 2.87z" class="J"/><path d="M67.24,19.64l-.51-1c.78.1,1.59.13,1.81,1.13Z" class="I"/><path d="M84.53,63.6c-.12-.79.19-1.14,1-1Z" class="G"/><path d="M65.39 13.51a3.63 3.63 0 0 1-1.79-2.85v-3l1.09-4.89c2.76.7 5.77.69 8 2.9-3.85 1.33-7.1 3.18-7.3 7.84z" class="I"/><path d="M52.76,80.82c1.83,2.11,2.15,4.79,2.8,7.34a11.36,11.36,0,0,1-2.88-7.28Z" class="K"/><path d="M77.54 59.64l-2.22-.34c.52-1 1.52-.29 2.23-.61a3.36 3.36 0 0 1-.01.95z" class="J"/><path d="M27.41,69.37l-.81-.77Z" class="H"/></svg>